<?xml version="1.0" encoding="UTF-8"?>
<svg version="1.1" xmlns="http://www.w3.org/2000/svg" width="1181" height="1181">
<path d="M0 0 C1.28511475 0.24943359 1.28511475 0.24943359 2.59619141 0.50390625 C42.37072684 8.53766317 79.66413574 27.82365289 112 52 C112.95108643 52.70769531 112.95108643 52.70769531 113.92138672 53.4296875 C131.96774298 66.95161447 131.96774298 66.95161447 138 76 C143.36181843 75.37458163 148.49964897 74.20560338 153.74243164 72.93041992 C172.34830128 68.41679657 190.86283818 65.62234673 210 65 C211.0828125 64.95875 212.165625 64.9175 213.28125 64.875 C255.07545871 64.06346197 298.01489107 74.82193894 335.03125 94.09765625 C338.81576141 96.0021678 342.45505485 97.1381527 346.5625 98.1875 C347.80128906 98.51105469 349.04007813 98.83460938 350.31640625 99.16796875 C356.50295242 100.56535405 362.51728024 101.14351541 368.84765625 101.2109375 C370.35613015 101.23903266 371.86459353 101.26769726 373.37304688 101.296875 C375.70694364 101.33779065 378.04064994 101.37475084 380.37475586 101.40136719 C409.31486698 101.75846248 409.31486698 101.75846248 418 110 C420.3751248 113.90593614 420.68351327 117.53386215 420 122 C417.7730357 130.30716287 411.69741878 135.50248231 405.72998047 141.26220703 C391.22867738 155.39522306 384.00892204 173.02466228 377.12020874 191.68811035 C364.13023397 226.72925157 345.53356612 258.64563231 320 286 C319.19175781 286.87398438 318.38351562 287.74796875 317.55078125 288.6484375 C300.83999859 306.08360386 278.70146513 320.38614993 255 326 C255.02320313 326.69480469 255.04640625 327.38960938 255.0703125 328.10546875 C255.67890719 362.40412688 247.45251357 394.5466396 225 421 C225.8765625 420.76925781 226.753125 420.53851562 227.65625 420.30078125 C268.64625697 409.76168393 268.64625697 409.76168393 286 410 C286.185625 409.34 286.37125 408.68 286.5625 408 C291.80998728 397.04872219 301.99804488 391.81716103 312.96875 387.859375 C341.93520953 379.64723441 373.037726 386.37951749 399.03857422 400.44946289 C409.11847596 406.16012508 418.26670942 413.35484749 426 422 C426.59941406 422.64582031 427.19882813 423.29164063 427.81640625 423.95703125 C431.46675657 428.25106284 432.64388997 431.27264178 432.30859375 436.921875 C432.00060792 438.99590615 431.55105798 440.977936 431 443 C431.94875 443.28875 432.8975 443.5775 433.875 443.875 C437 445 437 445 439 447 C440.24991237 458.76233326 439.32759766 469.17760875 431.828125 478.78125 C421.66137951 489.78982792 405.53051361 495.42168873 390.66186523 496.10791016 C387.89858741 496.17081072 385.13898848 496.18913799 382.375 496.1875 C381.39241211 496.18886963 380.40982422 496.19023926 379.39746094 496.19165039 C373.37948141 496.15133809 367.69684968 495.78809355 361.828125 494.33984375 C354.36139695 493.44259881 347.03443545 495.23961538 339.9375 497.4375 C339.09098877 497.69772949 338.24447754 497.95795898 337.37231445 498.22607422 C295.02041179 511.65033701 259.23131733 535.33676839 225 563 C225.56267578 563.61875 225.56267578 563.61875 226.13671875 564.25 C230.97037687 569.70460664 234.8050231 575.45029735 238 582 C243.52508937 574.37537667 247.99727606 566.52587739 249 557 C250.9914056 556.61866701 252.99279077 556.28674418 255 556 C256.78278864 557.78278864 256.25710293 560.27043817 256.3125 562.6875 C256.17625301 576.52413827 250.9441001 592.0558999 241 602 C239.5459375 602.8353125 239.5459375 602.8353125 238.0625 603.6875 C234.16578349 606.62991859 232.76041073 609.81549177 230.57421875 614.11328125 C228.19503502 618.47610204 225.14402072 622.17283403 222 626 C221.360625 626.886875 220.72125 627.77375 220.0625 628.6875 C214.23360694 635.22292555 206.98398228 638.68312501 199 642 C216.07971283 649.45838988 232.68102698 653.17820876 251.375 653.1875 C252.6640625 653.19974609 253.953125 653.21199219 255.28125 653.22460938 C261.92375486 653.23483911 267.63928933 652.88845035 274 651 C280.78996466 650.23000401 286.75084672 651.25265015 293 654 C294.96822886 655.96822886 294.66248381 659.34808709 295 662 C295.66 661.01 296.32 660.02 297 659 C299.65847645 659.07819048 301.44962619 659.53030926 303.4921875 661.2734375 C316.75858276 675.91458874 319.43068635 697.26201726 319.375 716.1875 C319.37418427 717.23472229 319.37418427 717.23472229 319.37335205 718.30310059 C319.22607299 759.71325901 305.03648027 800.42279012 275.8515625 830.19140625 C266.14056296 839.42912603 255.88632471 843.42020681 242.66796875 843.26953125 C233.5109038 842.59664788 227.68729427 838.98491975 220.85546875 833.15234375 C215.6510241 829.2294313 209.77072642 826.5875284 203.87207031 823.86669922 C202.28692239 823.13283444 200.71592726 822.36851765 199.1484375 821.59765625 C166.29336022 806.43004683 124.7756584 803.82351876 89.29219055 798.20526886 C86.86444024 797.82072704 84.43691251 797.43480316 82.00939941 797.04876709 C64.28427147 794.23570008 46.5424484 791.59867967 28.75 789.24609375 C27.98072992 789.14371714 27.21145985 789.04134052 26.41887856 788.93586159 C-0.51728264 785.36733774 -27.67043019 782.84658029 -54.85546875 782.83203125 C-56.33197558 782.82879403 -57.80848213 782.82542845 -59.2849884 782.82194519 C-62.36651342 782.81601495 -65.44801071 782.81409827 -68.52954102 782.81469727 C-71.59731077 782.81477743 -74.66492768 782.80800139 -77.73266602 782.79418945 C-113.82394882 782.63495597 -149.63482688 784.92989997 -185.58959961 787.921875 C-189.25383351 788.22664116 -192.91849785 788.52499581 -196.58374023 788.81738281 C-225.30615286 791.10947553 -253.76120867 794.03368607 -282.0625 799.625 C-283.32693436 799.87145767 -283.32693436 799.87145767 -284.61691284 800.12289429 C-318.85828327 806.25499722 -318.85828327 806.25499722 -350.875 819.0625 C-359.92681491 823.64123906 -369.92820454 824.02500968 -379.6328125 821.24609375 C-402.54046619 812.66469997 -417.61702074 792.57708993 -427.53857422 770.95800781 C-440.9059807 740.33449478 -444.65568294 706.25113612 -433.4609375 674.46484375 C-430.82404285 668.21103211 -427.74284873 661.82856582 -422 658 C-418.48275862 658.51724138 -418.48275862 658.51724138 -417 660 C-416.608125 658.741875 -416.21625 657.48375 -415.8125 656.1875 C-414.72807218 653.34087698 -414.17043333 652.14608572 -411.8125 650.125 C-401.1470079 645.85880316 -391.75498881 646.07286716 -381 650 C-374.76930878 652.71884708 -369.87529699 655.95083705 -365 660.6875 C-360.08193363 665.33972494 -355.60493891 666.94471732 -349 668 C-347.90429688 668.18046875 -346.80859375 668.3609375 -345.6796875 668.546875 C-328.06538817 670.71593946 -313.57760382 667.94541439 -298.8125 657.8125 C-283.32807913 642.32807913 -277.92447412 621.64693006 -273.71679688 600.85995483 C-269.95350506 582.33799499 -265.20078938 564.16462856 -260 546 C-260.61697754 545.70665771 -261.23395508 545.41331543 -261.86962891 545.11108398 C-264.46017849 543.7599963 -266.24982928 542.06799387 -268.375 540.0625 C-274.63770882 534.33083959 -281.27009331 529.16420186 -288 524 C-288.61085449 523.52691406 -289.22170898 523.05382812 -289.85107422 522.56640625 C-306.99863779 509.30478517 -325.04029901 497.50113761 -344 487 C-344.71607422 486.59942383 -345.43214844 486.19884766 -346.16992188 485.78613281 C-369.62947272 472.72073558 -404.89409876 453.60812639 -432.125 459 C-452.70331202 462.62533 -475.79966494 460.36561275 -493.8125 449.25 C-502.07997382 443.27735807 -507.95535565 436.13432419 -510 426 C-510.52615158 420.9589668 -510.98667015 416.00076297 -510 411 C-507.58984375 409.125 -507.58984375 409.125 -505 408 C-504.34 407.67 -503.68 407.34 -503 407 C-503.2475 406.00033203 -503.2475 406.00033203 -503.5 404.98046875 C-504.3060657 400.47783611 -504.63423382 397.28229289 -502.56640625 393.1015625 C-500.51411303 390.24515439 -498.35171119 387.61478397 -496 385 C-495.36320312 384.278125 -494.72640625 383.55625 -494.0703125 382.8125 C-475.38021676 362.95912029 -444.70975479 350.25793321 -417.55419922 348.87548828 C-397.13513578 348.28240345 -377.52866994 349.53664703 -361 363 C-358.13007007 365.84113465 -355.39181101 368.74140189 -353 372 C-353 372.66 -353 373.32 -353 374 C-351.66388672 374.27650391 -351.66388672 374.27650391 -350.30078125 374.55859375 C-340.40311868 376.70560333 -330.73168517 379.5020137 -321.0625 382.5 C-319.83120361 382.87954834 -318.59990723 383.25909668 -317.33129883 383.65014648 C-310.42258577 385.81563377 -303.66837066 388.17688013 -297 391 C-297.43570313 390.07703125 -297.87140625 389.1540625 -298.3203125 388.203125 C-307.48105879 368.33931468 -314.3701276 346.12502345 -313 324 C-313.54785156 323.85304688 -314.09570312 323.70609375 -314.66015625 323.5546875 C-334.88312405 317.83306734 -351.63174486 308.25930107 -367 294 C-367.56428711 293.47954102 -368.12857422 292.95908203 -368.70996094 292.42285156 C-382.93794634 279.14710165 -394.24428088 263.78486827 -404 247 C-404.46229004 246.21093262 -404.92458008 245.42186523 -405.40087891 244.60888672 C-415.85469458 226.60179654 -424.60362794 207.57824467 -431.1875 187.8125 C-436.29788665 172.6487108 -444.14795792 160.6473454 -455 149 C-456.69028952 147.14837595 -458.37808259 145.29446749 -460.0625 143.4375 C-460.75472656 142.69371094 -461.44695312 141.94992187 -462.16015625 141.18359375 C-466.52957805 135.9978044 -467.61250909 132.30485302 -467.4140625 125.59375 C-467 123 -467 123 -464.875 120 C-457.21435565 114.6708561 -450.86685911 113.86689808 -441.81640625 113.7890625 C-439.98241342 113.76096303 -438.14842918 113.73229842 -436.31445312 113.703125 C-433.4515842 113.66216767 -430.58887014 113.62524511 -427.72583008 113.59863281 C-413.14586792 113.45168037 -400.16254473 112.54071118 -386.625 106.58203125 C-336.09938909 84.53152218 -278.79140702 75.71335173 -225.0625 92.15625 C-221.04866714 93.374817 -221.04866714 93.374817 -217 93 C-214.81032194 90.84117391 -213.16053131 88.34940819 -211.4375 85.8125 C-205.82757788 77.94249058 -199.71521383 70.93554182 -193 64 C-192.29230469 63.25234375 -191.58460938 62.5046875 -190.85546875 61.734375 C-157.87107014 27.60795037 -108.58820439 4.61466845 -62 -2 C-61.02897339 -2.14139404 -61.02897339 -2.14139404 -60.03833008 -2.28564453 C-40.43339082 -4.83280573 -19.36020272 -3.76170701 0 0 Z M217 579 C216.34 579.66 215.68 580.32 215 581 C215.0065611 584.03996532 215.0065611 584.03996532 216 587 C218.85510619 589.24329772 221.45987077 589.19667385 225 589 C224.64235143 584.27101363 224.64235143 584.27101363 222.6875 580.0625 C220.76820011 578.64479115 220.76820011 578.64479115 217 579 Z M189 594.6875 C188.44054687 595.21794922 187.88109375 595.74839844 187.3046875 596.29492188 C184.21739097 599.33374636 182.07926817 601.45288959 182 606 C182.44004117 608.88826885 182.44004117 608.88826885 183.3125 611.75 C183.57675781 612.71421875 183.84101562 613.6784375 184.11328125 614.671875 C184.76127042 617.16258382 184.76127042 617.16258382 187 618 C195.43672609 619.32769195 201.95119798 616.50627226 209 612 C211.28508584 609.91476555 211.28508584 609.91476555 213 608 C212.25234375 607.63648438 211.5046875 607.27296875 210.734375 606.8984375 C204.33396824 603.63121415 199.78968331 601.18066222 197.33203125 594.06640625 C196.83057452 592.39376198 196.40751473 590.69797805 196 589 C193.5500056 589 190.76090258 592.95702776 189 594.6875 Z " fill="#B94848" transform="translate(612,149)"/>
<path d="M0 0 C0.01417969 1.07636719 0.02835938 2.15273438 0.04296875 3.26171875 C0.56376524 22.77587347 8.23214044 36.11263503 22.2890625 49.62890625 C33.06491128 59.05389214 46.27358923 66.77812095 60 71 C57.28880009 72.80746661 55.49756667 73.57716741 52.44140625 74.48828125 C27.69658153 82.1349257 4.88082994 93.19232419 -17 107 C-18.10730469 107.69351563 -19.21460938 108.38703125 -20.35546875 109.1015625 C-33.81216226 117.82521208 -46.78524478 127.612085 -59 138 C-59.53399414 138.45052734 -60.06798828 138.90105469 -60.61816406 139.36523438 C-68.36657921 145.90446023 -75.95476683 152.58588214 -83.37695312 159.49462891 C-85.16605943 161.15401963 -86.9656293 162.80164938 -88.765625 164.44921875 C-94.9745828 170.15504087 -101.01054028 175.86809188 -106.5546875 182.234375 C-110.43640004 186.62455467 -114.48215551 190.86057962 -118.50976562 195.11669922 C-119.7314062 196.4125062 -120.9473108 197.71374644 -122.15722656 199.02050781 C-123.43797989 200.39628258 -124.73842818 201.75387793 -126.05371094 203.09667969 C-126.7037207 203.78407227 -127.35373047 204.47146484 -128.0234375 205.1796875 C-128.91554932 206.09983643 -128.91554932 206.09983643 -129.82568359 207.03857422 C-131.27940463 209.01566513 -131.27940463 209.01566513 -130.68603516 211.73876953 C-130.45964355 212.48497559 -130.23325195 213.23118164 -130 214 C-129.01 214 -128.02 214 -127 214 C-124.90248198 211.81711807 -124.90248198 211.81711807 -122.8125 209 C-119.29268189 204.53541893 -115.64128983 200.48107224 -111.53125 196.55859375 C-109.90167459 195.05986609 -109.90167459 195.05986609 -109 193 C-108.01 193.33 -107.02 193.66 -106 194 C-105.24804688 195.82250977 -105.24804688 195.82250977 -104.71875 198.19140625 C-104.41517578 199.48594727 -104.41517578 199.48594727 -104.10546875 200.80664062 C-103.90566406 201.71607422 -103.70585938 202.62550781 -103.5 203.5625 C-101.80388961 211.09532883 -101.80388961 211.09532883 -99.34375 218.40234375 C-98 222 -98 222 -98 226 C-83.94585075 233.1542615 -69.61785211 239.2178725 -54 242 C-55.29832765 244.67615985 -56.70184829 247.21320704 -58.28515625 249.73046875 C-82.8915914 289.18207165 -95.99666928 331.10061532 -88 378 C-87.71382812 379.70929688 -87.71382812 379.70929688 -87.421875 381.453125 C-87.08354499 383.45410535 -86.73418849 385.45329795 -86.3671875 387.44921875 C-85.99944909 390.00382707 -85.9349941 392.4229803 -86 395 C-87.03253906 394.76925781 -88.06507813 394.53851562 -89.12890625 394.30078125 C-94.08473229 393.1950691 -99.04216132 392.09664853 -104 391 C-104.89332031 390.80212891 -105.78664063 390.60425781 -106.70703125 390.40039062 C-131.34322489 384.95505169 -156.02098166 380.17001874 -180.9375 376.1875 C-182.26986073 375.97339524 -183.60220715 375.75920136 -184.93453979 375.54492188 C-205.11286123 372.30451952 -225.31817204 369.29925872 -245.5625 366.5 C-246.75245575 366.33446625 -247.9424115 366.1689325 -249.16842651 365.99838257 C-263.75179788 363.97889288 -278.32149627 362.15912024 -293 361 C-294.11710358 360.91036987 -295.23420715 360.82073975 -296.38516235 360.72839355 C-315.97693669 359.19928267 -335.44983808 358.66545958 -355.09317398 358.74205017 C-357.29741664 358.75017477 -359.50164889 358.7550933 -361.7059021 358.75939941 C-381.60885837 358.80409353 -401.43380771 359.05118725 -421.28466797 360.63183594 C-427.02169863 361.0870048 -432.76295624 361.48075609 -438.50390625 361.8828125 C-504.84278723 366.46585443 -504.84278723 366.46585443 -570.5 376.5625 C-571.24638733 376.71038971 -571.99277466 376.85827942 -572.76177979 377.01065063 C-580.53182865 378.5614106 -588.21239229 380.18714298 -595.78320312 382.56225586 C-598.21545371 383.04254499 -599.67302438 382.7866537 -602 382 C-601.66226562 380.92363281 -601.32453125 379.84726562 -600.9765625 378.73828125 C-600.5255714 377.26316453 -600.07507784 375.78789563 -599.625 374.3125 C-599.29242187 373.2596582 -599.29242187 373.2596582 -598.953125 372.18554688 C-595.58252238 361.03281761 -594.63186661 349.85802781 -594.6875 338.25 C-594.69241455 337.02498779 -594.6973291 335.79997559 -594.70239258 334.5378418 C-594.82471565 325.03616206 -595.68257101 316.20482793 -598 307 C-598.17692383 306.29343262 -598.35384766 305.58686523 -598.53613281 304.85888672 C-601.05067829 295.04607929 -604.50944921 286.09518023 -609 277 C-610.4690907 273.90086927 -611.92077366 270.79362701 -613.375 267.6875 C-614.58191659 265.12432956 -615.79101239 262.56219456 -617 260 C-616.07960938 259.91363281 -615.15921875 259.82726562 -614.2109375 259.73828125 C-596.54023338 257.77686908 -581.69941871 251.86868593 -570 238 C-557.18195255 220.45529755 -552.58480697 199.87268897 -548.55889893 178.90298462 C-546.82145562 169.85395318 -544.81068733 161.02557293 -542.20703125 152.19140625 C-541.09885133 148.42644744 -540.15194052 144.63433564 -539.23071289 140.81982422 C-534.84737647 122.67517891 -529.03038965 104.97191136 -523.2956543 87.21911621 C-522.73253521 85.4758501 -522.17032993 83.73228848 -521.60913086 81.98840332 C-519.77971523 76.31172935 -517.91055622 70.64987386 -516 65 C-515.7358429 64.21099304 -515.47168579 63.42198608 -515.19952393 62.60906982 C-514.43404815 60.34571752 -513.64525857 58.09204646 -512.84765625 55.83984375 C-512.6198497 55.160392 -512.39204315 54.48094025 -512.15733337 53.78089905 C-510.51714338 49.27148906 -510.51714338 49.27148906 -508.03051758 47.96606445 C-504.40142536 48.02671659 -501.59717206 50.35199468 -498.625 52.25 C-478.0022313 64.76810949 -456.96435824 72.97263918 -434 80 C-432.47656982 80.46962158 -432.47656982 80.46962158 -430.92236328 80.94873047 C-405.03579111 88.80310432 -377.81525912 93.69867138 -351 97 C-350.33019104 97.0864679 -349.66038208 97.17293579 -348.97027588 97.26202393 C-335.70856698 98.95126925 -322.60925442 99.3241701 -309.25 99.25 C-307.72664536 99.24484879 -307.72664536 99.24484879 -306.17251587 99.23959351 C-291.69427077 99.18220852 -277.36259545 98.97916328 -263 97 C-261.79263184 96.83870605 -260.58526367 96.67741211 -259.34130859 96.51123047 C-244.22103438 94.46912078 -229.19956006 91.99177411 -214.25 88.9375 C-213.1038623 88.70450195 -211.95772461 88.47150391 -210.77685547 88.23144531 C-203.94360232 86.78388383 -197.37844442 84.93758591 -190.76855469 82.67407227 C-187.98550393 81.99647058 -186.64327855 82.01134414 -184 83 C-185.74915445 84.43852875 -187.49935795 85.87578198 -189.25 87.3125 C-190.22453125 88.11300781 -191.1990625 88.91351562 -192.203125 89.73828125 C-195 92 -195 92 -197.359375 93.54296875 C-197.90078125 94.02378906 -198.4421875 94.50460937 -199 95 C-199 96.32 -199 97.64 -199 99 C-193.86363048 98.5669921 -191.63221285 97.22316085 -188 93.625 C-183.85476693 89.68197342 -179.64359437 86.0083573 -175.125 82.5 C-174.53614014 82.04278564 -173.94728027 81.58557129 -173.34057617 81.11450195 C-172.14973382 80.19363369 -170.9575979 79.27443575 -169.76416016 78.35693359 C-168.04038231 77.03106074 -166.32229057 75.69814387 -164.60546875 74.36328125 C-158.84616688 69.89495989 -153.03656262 65.50508705 -147.1171875 61.25 C-144.71396691 59.51534454 -142.32664312 57.76427451 -139.9453125 56 C-130.29628842 48.88688964 -120.46660042 42.31151523 -110.12451172 36.24804688 C-108.1376971 35.08089032 -106.16431359 33.89357471 -104.19140625 32.703125 C-74.3871112 15.02676568 -35.11291332 0 0 0 Z " fill="#F5B7B7" transform="translate(895,566)"/>
<path d="M0 0 C0.67627441 0.47018555 1.35254883 0.94037109 2.04931641 1.42480469 C24.7439046 17.22389992 41.68940079 35.52673879 56.125 59.125 C56.49109375 59.71563232 56.8571875 60.30626465 57.234375 60.91479492 C59.59729467 64.88136594 60.90420861 68.56035036 62 73 C63.65 73 65.3 73 67 73 C65.16871967 58.34975737 54.60992413 45.50386523 46 34 C74.01993301 15.32004466 129.08620612 20.23222727 160 25 C160.82016602 25.1232666 161.64033203 25.2465332 162.48535156 25.37353516 C187.26216594 29.29644324 212.81973541 39.06593136 234.99609375 50.58984375 C239.67245585 52.93433325 244.22346261 54.55760001 249.3125 55.75 C250.21258789 55.96116455 251.11267578 56.1723291 252.04003906 56.38989258 C263.25342895 58.68869235 274.67473478 58.6520585 286.0793457 58.72363281 C309.89832938 58.89832938 309.89832938 58.89832938 316 65 C316.20148704 71.34684172 315.14678871 74.38098975 310.875 79.125 C308.70687153 81.3578996 306.50150583 83.52845138 304.234375 85.66015625 C289.27866206 99.85356343 281.38543162 117.86340192 274.41870117 136.87060547 C263.53843005 166.41502958 248.83311183 196.1591353 228 220 C227.32066406 220.78761719 226.64132812 221.57523437 225.94140625 222.38671875 C223.66936674 224.96655684 221.34931028 227.49033997 219 230 C218.10539063 230.96035156 217.21078125 231.92070312 216.2890625 232.91015625 C199.77994159 250.24304631 179.69059655 261.72497368 157 269 C156.34 269 155.68 269 155 269 C154.87882813 268.21496094 154.75765625 267.42992187 154.6328125 266.62109375 C153.58731092 259.79871098 153.58731092 259.79871098 151.875 253.125 C150.97650616 249.91609342 150.93544096 247.31095622 151 244 C151.969375 243.61070312 152.93875 243.22140625 153.9375 242.8203125 C191.22529365 227.42812164 216.83151775 198.57239186 232.66015625 161.9777832 C236.59401655 152.45873963 239.188505 142.50378644 241.5625 132.5 C244.79362468 119.37913459 251.96992938 108.75219345 261.1796875 98.99609375 C263.75763223 96.16920586 264.21302793 94.37527643 264.375 90.625 C264.42398438 89.85414063 264.47296875 89.08328125 264.5234375 88.2890625 C264.14294346 85.81667553 264.14294346 85.81667553 262.08203125 83.73828125 C257.76332063 81.30250657 254.1896913 81.44241346 249.3125 81.5625 C247.91463257 81.57796875 247.91463257 81.57796875 246.48852539 81.59375 C240.51197637 81.73197135 234.80218314 82.37721362 228.9375 83.5 C212.27776515 86.64710526 196.91310835 84.84256882 180.4296875 81.48291016 C151.79495122 75.79164123 121.74300217 77.25902641 93.3125 83.4375 C91.98061646 83.72693481 91.98061646 83.72693481 90.62182617 84.0222168 C84.22056163 85.51327196 78.13142024 87.64514203 72 90 C72.55807813 94.10457464 73.48506254 97.48149767 75.1875 101.25 C77.38285301 106.34725642 79.21983851 111.4792907 80.9375 116.75 C89.30807034 142.20606993 99.37614557 167.67157983 115.61938477 189.20996094 C140.24748672 221.90976752 155.62772665 264.51123109 150 305.6875 C147.2249013 323.6465308 140.9012022 346.51841635 128 360 C125.33390635 361.08565255 122.95781922 361.87682735 120.1953125 362.578125 C119.41689499 362.79078003 118.63847748 363.00343506 117.83647156 363.22253418 C115.27065383 363.91738291 112.69857422 364.58450364 110.125 365.25 C108.31707929 365.72995827 106.50938369 366.21076522 104.7019043 366.69238281 C99.14334916 368.16308022 93.57390485 369.58872591 88 371 C87.15870544 371.21350098 86.31741089 371.42700195 85.45062256 371.64697266 C42.05541323 382.62519968 -2.25108989 391.23139847 -47 394 C-47.65353455 394.04130035 -48.30706909 394.08260071 -48.98040771 394.12515259 C-61.28271305 394.88785645 -73.55000338 395.20455932 -85.875 395.1875 C-86.7631842 395.18656342 -87.65136841 395.18562683 -88.56646729 395.18466187 C-173.11992985 394.99312535 -258.74821679 373.0757486 -326 320 C-326.63760254 319.49774902 -327.27520508 318.99549805 -327.93212891 318.47802734 C-355.79777679 296.40061228 -379.98587038 270.15076042 -384.6875 233.375 C-386.57224386 211.4255871 -380.65852092 190.98066316 -370 172 C-369.65453125 171.36900391 -369.3090625 170.73800781 -368.953125 170.08789062 C-363.84776046 160.89632946 -358.03105846 154.61276063 -349 149 C-348.11248047 148.44602539 -348.11248047 148.44602539 -347.20703125 147.88085938 C-320.08959065 131.19539016 -293.54931308 125.91024267 -262 127 C-265.66797751 128.96197627 -268.94361858 129.58552689 -273.0625 130.25 C-282.9405496 132.05070489 -291.59744918 136.04007195 -298 144 C-298 145.32 -298 146.64 -298 148 C-294.27052746 147.77397136 -292.40545266 146.64487694 -289.75 144.1875 C-281.51824761 136.74142463 -270.70483812 134.94162928 -260 134 C-260.33 132.02 -260.66 130.04 -261 128 C-257.37 128.33 -253.74 128.66 -250 129 C-248.89575777 132.3127267 -249.13690088 133.3284154 -249.9375 136.625 C-251.88322194 145.78445295 -250.7330144 153.85525435 -249 163 C-256.7543135 156.62423112 -264.15010357 149.60339537 -270.5 141.8125 C-271.325 140.884375 -272.15 139.95625 -273 139 C-273.99 139 -274.98 139 -276 139 C-276.44246248 141.24292169 -276.44246248 141.24292169 -276 144 C-274.31447181 146.22645124 -272.69823288 148.09397614 -270.75 150.0625 C-269.93680298 150.90905151 -269.93680298 150.90905151 -269.10717773 151.77270508 C-267.97361242 152.94755648 -266.83410425 154.11670055 -265.68896484 155.28027344 C-264.10514484 156.89294012 -262.54454528 158.52485954 -260.98828125 160.1640625 C-255.56875808 165.80311295 -249.9428672 170.75257455 -243.66235352 175.41162109 C-238.623717 179.18086623 -234.32713139 183.45377335 -230 188 C-229.13375 188.804375 -228.2675 189.60875 -227.375 190.4375 C-221.58176907 196.68809127 -217.54776013 203.49227768 -214.125 211.25 C-213.82674316 211.92329346 -213.52848633 212.59658691 -213.22119141 213.2902832 C-210.41492034 219.90226316 -209.86523591 225.96287532 -209.82421875 233.07421875 C-209.80100917 234.64519552 -209.77689138 236.21615909 -209.75195312 237.78710938 C-209.71701415 240.23112726 -209.68757091 242.67466041 -209.67407227 245.11889648 C-209.58513078 258.62842391 -208.10692987 270.29293712 -199 281 C-185.82447053 294.0024925 -168.97175024 300.55690559 -150.69238281 300.49047852 C-124.71230233 299.69224855 -103.99696243 282.16306803 -86.53125 264.50390625 C-79.83084208 257.31984212 -74.35119898 249.29298454 -68.77783203 241.23242188 C-60.88523027 229.84366157 -52.38015483 218.99611411 -42.37109375 209.37109375 C-40.82521394 207.88268757 -40.82521394 207.88268757 -39.0625 205.5 C-36.72703152 202.66912911 -34.17392962 200.44031093 -31.3671875 198.0859375 C-28.90493756 195.97300448 -28.90493756 195.97300448 -26.4453125 193.3515625 C-18.40981593 185.11560502 -9.85549339 181.53406618 1 178 C1 176.68 1 175.36 1 174 C-4.61290099 174.59395778 -9.46543247 176.05779469 -14.75 178 C-16.50192958 178.62818661 -18.25457712 179.25437333 -20.0078125 179.87890625 C-20.9555957 180.21680176 -21.90337891 180.55469727 -22.87988281 180.90283203 C-28.77425425 182.97554762 -34.69930497 184.95649433 -40.625 186.9375 C-42.41309082 187.53981445 -42.41309082 187.53981445 -44.23730469 188.15429688 C-45.34750977 188.52490234 -46.45771484 188.89550781 -47.6015625 189.27734375 C-48.59494629 189.60984131 -49.58833008 189.94233887 -50.61181641 190.28491211 C-53 191 -53 191 -55 191 C-53.6118113 188.05836204 -51.9942122 185.47104274 -50.125 182.8125 C-41.86625523 170.55563429 -40.24616662 157.47423193 -42.4609375 142.984375 C-43.13291604 140.53362972 -43.95859985 138.31731408 -45 136 C-45.37898438 135.13503906 -45.75796875 134.27007812 -46.1484375 133.37890625 C-56.75827307 111.76059966 -79.71938418 98.25461762 -101.63305664 90.32519531 C-133.74107187 79.40061119 -171.3640302 79.33899152 -203.171875 90.6953125 C-206.08978777 91.72725726 -208.93551755 92.50533945 -212 93 C-224.82721328 72.25812321 -226.27167696 41.72714122 -220.83178711 18.56176758 C-216.27283545 0.87502477 -208.40343489 -16.48246966 -197.375 -31.08984375 C-195.93471264 -32.93078732 -195.93471264 -32.93078732 -195.18530273 -35.01953125 C-193.63718238 -37.60621555 -192.53753689 -37.82822314 -189.66015625 -38.59765625 C-188.3297229 -38.96189697 -188.3297229 -38.96189697 -186.97241211 -39.33349609 C-185.53200562 -39.69435303 -185.53200562 -39.69435303 -184.0625 -40.0625 C-183.06033447 -40.31854004 -182.05816895 -40.57458008 -181.02563477 -40.83837891 C-178.02289391 -41.58614872 -175.01388806 -42.2986776 -172 -43 C-171.24041992 -43.1851416 -170.48083984 -43.3702832 -169.69824219 -43.56103516 C-111.31544824 -57.30058052 -47.2381229 -33.40795004 0 0 Z " fill="#F7C7C8" transform="translate(709,199)"/>
<path d="M0 0 C-1.47536871 3.21678751 -3.34328973 6.11467634 -5.2746582 9.07397461 C-19.14485333 30.49060765 -28.4136968 53.72406135 -28.375 79.5 C-28.37258301 81.19697021 -28.37258301 81.19697021 -28.37011719 82.92822266 C-28.13663272 99.12334652 -24.05806676 114.04247233 -18 129 C-16.77925781 128.52949219 -15.55851563 128.05898438 -14.30078125 127.57421875 C3.10594357 120.95473505 18.83294517 117.78607189 37.5 117.8125 C38.21686981 117.81277191 38.93373962 117.81304382 39.67233276 117.81332397 C49.92393567 117.83125513 59.88131607 118.14844595 70 120 C71.75183594 120.25716797 71.75183594 120.25716797 73.5390625 120.51953125 C98.88279015 124.72539612 127.51502647 138.35411067 142.8984375 159.625 C152.0017094 173.45275479 155.05231435 186.57299427 152.5390625 203.015625 C150.04182147 212.12320994 145.02213728 219.8687479 139 227 C143.69265 225.40403438 148.38414594 223.80473129 153.07470703 222.20263672 C154.66262792 221.66075512 156.25083361 221.11970717 157.83935547 220.57958984 C160.15412186 219.79236403 162.46794401 219.00244408 164.78125 218.2109375 C165.54727539 217.94923767 166.31330078 217.68753784 167.10253906 217.41790771 C170.94413438 216.09427074 174.75991856 214.72578135 178.55078125 213.26269531 C179.27422729 212.9839859 179.99767334 212.70527649 180.74304199 212.41812134 C182.10263896 211.88963717 183.45940526 211.35378693 184.81262207 210.80917358 C188.34173627 209.43378338 191.20692392 208.6995494 195 209 C195.33 210.65 195.66 212.3 196 214 C194.70954304 214.58600461 193.41753112 215.16858462 192.125 215.75 C191.40570312 216.07484375 190.68640625 216.3996875 189.9453125 216.734375 C187 218 187 218 184.73828125 218.77172852 C178.03530108 221.15471004 173.72140875 224.4120542 168.75 229.4375 C167.41285494 230.75012213 166.07433661 232.06134696 164.734375 233.37109375 C164.10305664 233.99435547 163.47173828 234.61761719 162.82128906 235.25976562 C161.17152039 236.83611296 159.48575562 238.3040421 157.71875 239.74609375 C155.46402769 241.61531038 153.61951613 243.39142021 151.75 245.625 C149.02097697 248.83772295 146.1970564 251.9262167 143.3125 255 C135.30399107 263.78863765 128.26965055 273.40043544 121.8125 283.375 C118.63858812 288.23464101 115.10095408 292.47055678 111.140625 296.70703125 C109.24835533 298.73396975 107.46491638 300.81064011 105.6875 302.9375 C91.59199708 318.96831224 70.68838748 335.13269095 48.70385742 337.21777344 C28.91059745 338.19104762 12.49677828 332.98431359 -2.84765625 320.02734375 C-10.06721098 313.2270735 -15.67406628 303.57643477 -16.17358398 293.49755859 C-16.20186471 292.04792593 -16.22574626 290.59820322 -16.24609375 289.1484375 C-16.27905905 287.5585888 -16.3122702 285.96874518 -16.34570312 284.37890625 C-16.39287693 281.88431621 -16.43726634 279.38974263 -16.47680664 276.89501953 C-16.67509736 264.96195502 -17.07837471 254.82982614 -22.6875 244.0625 C-23.04199219 243.3722876 -23.39648438 242.6820752 -23.76171875 241.97094727 C-28.59728965 232.73910846 -33.91559969 225.59119951 -42 219 C-43.46333172 217.69307512 -44.92151172 216.38036349 -46.375 215.0625 C-49.30757779 212.43756996 -52.29984934 209.99842014 -55.4375 207.625 C-60.79129892 203.40454872 -65.55791589 198.62910389 -70.375 193.8125 C-71.16060303 193.02762207 -71.94620605 192.24274414 -72.75561523 191.43408203 C-82.89340831 181.19915647 -82.89340831 181.19915647 -83.25 177.1875 C-83.1675 176.465625 -83.085 175.74375 -83 175 C-81.68 174.67 -80.36 174.34 -79 174 C-78.55197021 174.47832275 -78.10394043 174.95664551 -77.64233398 175.44946289 C-75.57525341 177.65493433 -73.50638807 179.85872408 -71.4375 182.0625 C-70.73302734 182.81466797 -70.02855469 183.56683594 -69.30273438 184.34179688 C-64.94783847 188.9776538 -60.52976759 193.53472584 -56 198 C-56.144375 197.31035156 -56.28875 196.62070312 -56.4375 195.91015625 C-58.53334184 185.29995695 -58.01156754 176.61461087 -56 166 C-59.3 165.67 -62.6 165.34 -66 165 C-65.814375 165.804375 -65.62875 166.60875 -65.4375 167.4375 C-65.293125 168.283125 -65.14875 169.12875 -65 170 C-66.77062515 171.77062515 -69.46921295 171.50965387 -71.875 171.8125 C-81.51142516 173.24051031 -91.35369079 175.7905018 -98.0625 183.3125 C-98.701875 183.869375 -99.34125 184.42625 -100 185 C-102.75 184.75 -102.75 184.75 -105 184 C-104.3822484 178.36179094 -101.6367536 176.35221505 -97.44140625 172.859375 C-89.73335682 166.98892456 -81.36396499 165.60943148 -72 164 C-105.90822432 162.60592373 -137.38649809 171.38281404 -164.390625 192.51171875 C-169.08699563 196.99014403 -172.02009689 202.30244979 -175 208 C-175.69610809 209.26460185 -176.39273561 210.5289179 -177.08984375 211.79296875 C-189.55161572 234.95479528 -193.40457213 260.58106889 -186.12036133 286.04882812 C-180.11388684 305.80153166 -168.1029242 321.22550799 -154 336 C-152.948125 337.11375 -152.948125 337.11375 -151.875 338.25 C-146.95345907 343.33030032 -141.58956576 347.67825301 -136 352 C-134.56720703 353.14082031 -134.56720703 353.14082031 -133.10546875 354.3046875 C-118.96567033 365.43866714 -103.8658995 375.00139774 -88.17089844 383.78320312 C-86.23393132 384.8688806 -84.30790317 385.97160229 -82.3828125 387.078125 C-36.58767807 412.62371019 18.01911727 425.49072294 70 429 C71.826521 429.12918823 71.826521 429.12918823 73.68994141 429.26098633 C84.67086782 429.99915097 95.62126735 430.20147694 106.625 430.1875 C107.51495667 430.18689575 108.40491333 430.1862915 109.32183838 430.18566895 C168.79500291 430.07708086 227.28032783 420.08053741 284.75 405.3125 C285.45213623 405.1322226 286.15427246 404.95194519 286.87768555 404.76620483 C293.17834602 403.14030901 299.46121397 401.48367164 305.68554688 399.58349609 C306.84863373 399.23027534 306.84863373 399.23027534 308.03521729 398.86991882 C309.53232118 398.41159589 311.02706458 397.94546958 312.51898193 397.47053528 C317.67031567 395.89010522 317.67031567 395.89010522 321 397 C319.84017908 398.50529949 318.67165186 400.0038907 317.5 401.5 C316.52546875 402.75296875 316.52546875 402.75296875 315.53125 404.03125 C314.6959375 405.0109375 313.860625 405.990625 313 407 C312.48703369 407.61987793 311.97406738 408.23975586 311.44555664 408.87841797 C306.06004355 414.86682481 299.69785822 417.96683158 292.46170044 421.21322632 C288.98083634 422.78113442 285.53261358 424.41715814 282.0859375 426.05859375 C281.39526688 426.38735001 280.70459625 426.71610626 279.99299622 427.05482483 C264.57996883 434.47237779 250.49904504 443.97519468 237.02587891 454.44970703 C233.19947704 457.37784054 229.28434437 460.18414523 225.375 463 C224.62822998 463.54019775 223.88145996 464.08039551 223.11206055 464.63696289 C221.70755341 465.64933661 220.29933155 466.65658212 218.88696289 467.65795898 C217.27185198 468.80665412 215.67497282 469.98091035 214.08203125 471.16015625 C210.00253058 473.59544752 205.82359447 474.99477749 201.3125 476.4375 C200.38405273 476.73897949 199.45560547 477.04045898 198.49902344 477.35107422 C171.04978611 486.13501696 142.68924363 491.14145217 114.125 494.625 C113.11501953 494.7482666 112.10503906 494.8715332 111.06445312 494.99853516 C68.69335899 499.9943442 26.5620148 496.10928494 -15 487 C-16.8723058 486.60634236 -18.74470103 486.21310984 -20.6171875 485.8203125 C-40.14197163 481.63655312 -59.30657129 476.01541569 -78 469 C-79.22332031 468.55269531 -80.44664062 468.10539062 -81.70703125 467.64453125 C-105.23797549 458.69826172 -127.77384293 445.21040024 -147 429 C-147.59393555 428.50612793 -148.18787109 428.01225586 -148.79980469 427.50341797 C-160.43892894 417.81644477 -170.64685854 407.72260129 -179.77783203 395.61914062 C-180.80860972 394.25355581 -181.85386533 392.89891699 -182.90234375 391.546875 C-201.58393035 366.40365727 -209.21870242 336.03675631 -209.25 305.1875 C-209.25133942 304.40954071 -209.25267883 303.63158142 -209.25405884 302.83004761 C-209.24951045 290.64303828 -208.53626834 278.95134567 -206 267 C-205.72736328 265.47052734 -205.72736328 265.47052734 -205.44921875 263.91015625 C-199.86822914 236.84045833 -183.24344155 210.51132991 -167.953125 187.984375 C-154.4103538 167.52193968 -143.53524906 145.43797567 -135.0625 122.4375 C-114.2017796 66.22367624 -67.7159208 29.02435618 -14.7265625 4.62109375 C-4.32426778 0 -4.32426778 0 0 0 Z " fill="#F5B7B7" transform="translate(515,163)"/>
<path d="M0 0 C1.16789063 0.17144531 2.33578125 0.34289062 3.5390625 0.51953125 C28.88279015 4.72539612 57.51502647 18.35411067 72.8984375 39.625 C82.0017094 53.45275479 85.05231435 66.57299427 82.5390625 83.015625 C80.04182147 92.12320994 75.02213728 99.8687479 69 107 C73.69265 105.40403438 78.38414594 103.80473129 83.07470703 102.20263672 C84.66262792 101.66075512 86.25083361 101.11970717 87.83935547 100.57958984 C90.15412186 99.79236403 92.46794401 99.00244408 94.78125 98.2109375 C95.93028809 97.81838776 95.93028809 97.81838776 97.10253906 97.41790771 C100.94413438 96.09427074 104.75991856 94.72578135 108.55078125 93.26269531 C109.27422729 92.9839859 109.99767334 92.70527649 110.74304199 92.41812134 C112.10263896 91.88963717 113.45940526 91.35378693 114.81262207 90.80917358 C118.34173627 89.43378338 121.20692392 88.6995494 125 89 C125.33 90.65 125.66 92.3 126 94 C124.70954304 94.58600461 123.41753112 95.16858462 122.125 95.75 C121.40570312 96.07484375 120.68640625 96.3996875 119.9453125 96.734375 C117 98 117 98 114.73828125 98.77172852 C108.03530108 101.15471004 103.72140875 104.4120542 98.75 109.4375 C97.41285494 110.75012213 96.07433661 112.06134696 94.734375 113.37109375 C94.10305664 113.99435547 93.47173828 114.61761719 92.82128906 115.25976562 C91.17152039 116.83611296 89.48575562 118.3040421 87.71875 119.74609375 C85.46402769 121.61531038 83.61951613 123.39142021 81.75 125.625 C79.02097697 128.83772295 76.1970564 131.9262167 73.3125 135 C65.30399107 143.78863765 58.26965055 153.40043544 51.8125 163.375 C48.63858812 168.23464101 45.10095408 172.47055678 41.140625 176.70703125 C39.24835533 178.73396975 37.46491638 180.81064011 35.6875 182.9375 C21.59199708 198.96831224 0.68838748 215.13269095 -21.29614258 217.21777344 C-41.08940255 218.19104762 -57.50322172 212.98431359 -72.84765625 200.02734375 C-80.06721098 193.2270735 -85.67406628 183.57643477 -86.17358398 173.49755859 C-86.20186471 172.04792593 -86.22574626 170.59820322 -86.24609375 169.1484375 C-86.27905905 167.5585888 -86.3122702 165.96874518 -86.34570312 164.37890625 C-86.39287693 161.88431621 -86.43726634 159.38974263 -86.47680664 156.89501953 C-86.67509736 144.96195502 -87.07837471 134.82982614 -92.6875 124.0625 C-93.04199219 123.3722876 -93.39648438 122.6820752 -93.76171875 121.97094727 C-98.59728965 112.73910846 -103.91559969 105.59119951 -112 99 C-113.46333172 97.69307512 -114.92151172 96.38036349 -116.375 95.0625 C-119.30757779 92.43756996 -122.29984934 89.99842014 -125.4375 87.625 C-130.79129892 83.40454872 -135.55791589 78.62910389 -140.375 73.8125 C-141.16060303 73.02762207 -141.94620605 72.24274414 -142.75561523 71.43408203 C-152.89340831 61.19915647 -152.89340831 61.19915647 -153.25 57.1875 C-153.12625 56.1046875 -153.12625 56.1046875 -153 55 C-151.02 54.505 -151.02 54.505 -149 54 C-148.55197021 54.47832275 -148.10394043 54.95664551 -147.64233398 55.44946289 C-145.57525341 57.65493433 -143.50638807 59.85872408 -141.4375 62.0625 C-140.73302734 62.81466797 -140.02855469 63.56683594 -139.30273438 64.34179688 C-134.94783847 68.9776538 -130.52976759 73.53472584 -126 78 C-126.144375 77.31035156 -126.28875 76.62070312 -126.4375 75.91015625 C-129.46917605 60.56229623 -127.37957001 47.50245125 -119 34 C-105.64845498 16.35140601 -85.91981742 6.68215955 -65 1 C-63.74960937 0.6596875 -62.49921875 0.319375 -61.2109375 -0.03125 C-42.01563391 -4.2534349 -19.20791429 -3.5147349 0 0 Z " fill="#F19899" transform="translate(585,283)"/>
<path d="M0 0 C0.82016602 0.1232666 1.64033203 0.2465332 2.48535156 0.37353516 C27.26216594 4.29644324 52.81973541 14.06593136 74.99609375 25.58984375 C79.67245585 27.93433325 84.22346261 29.55760001 89.3125 30.75 C90.21258789 30.96116455 91.11267578 31.1723291 92.04003906 31.38989258 C103.25342895 33.68869235 114.67473478 33.6520585 126.0793457 33.72363281 C149.89832938 33.89832938 149.89832938 33.89832938 156 40 C156.20148704 46.34684172 155.14678871 49.38098975 150.875 54.125 C148.70687153 56.3578996 146.50150583 58.52845138 144.234375 60.66015625 C129.27866206 74.85356343 121.38543162 92.86340192 114.41870117 111.87060547 C103.53843005 141.41502958 88.83311183 171.1591353 68 195 C67.32066406 195.78761719 66.64132812 196.57523438 65.94140625 197.38671875 C63.66936674 199.96655684 61.34931028 202.49033997 59 205 C58.10539063 205.96035156 57.21078125 206.92070312 56.2890625 207.91015625 C39.77994159 225.24304631 19.69059655 236.72497368 -3 244 C-3.66 244 -4.32 244 -5 244 C-5.12117187 243.21496094 -5.24234375 242.42992187 -5.3671875 241.62109375 C-6.41268908 234.79871098 -6.41268908 234.79871098 -8.125 228.125 C-9.02349384 224.91609342 -9.06455904 222.31095622 -9 219 C-8.030625 218.61070312 -7.06125 218.22140625 -6.0625 217.8203125 C31.22529365 202.42812164 56.83151775 173.57239186 72.66015625 136.9777832 C76.59401655 127.45873963 79.188505 117.50378644 81.5625 107.5 C84.79362468 94.37913459 91.96992938 83.75219345 101.1796875 73.99609375 C103.75763223 71.16920586 104.21302793 69.37527643 104.375 65.625 C104.44847656 64.46871094 104.44847656 64.46871094 104.5234375 63.2890625 C104.14294346 60.81667553 104.14294346 60.81667553 102.08203125 58.73828125 C97.76332063 56.30250657 94.1896913 56.44241346 89.3125 56.5625 C88.38058838 56.5728125 87.44867676 56.583125 86.48852539 56.59375 C80.51197637 56.73197135 74.80218314 57.37721362 68.9375 58.5 C52.27776515 61.64710526 36.91310835 59.84256882 20.4296875 56.48291016 C-15.93903949 49.25447949 -52.65074693 54.16926757 -88 64 C-88.39832031 63.01257813 -88.79664063 62.02515625 -89.20703125 61.0078125 C-89.74170392 59.71334182 -90.27688687 58.41908183 -90.8125 57.125 C-91.07353516 56.47402344 -91.33457031 55.82304687 -91.60351562 55.15234375 C-93.05805618 51.66862933 -93.78149589 50.14566941 -97 48 C-95.68 48 -94.36 48 -93 48 C-94.83128033 33.34975737 -105.39007587 20.50386523 -114 9 C-85.98006699 -9.67995534 -30.91379388 -4.76777273 0 0 Z " fill="#F5B7B7" transform="translate(869,224)"/>
<path d="M0 0 C13.4789037 2.76122006 25.40959833 2.74790654 38.93896484 0.40917969 C48.6793114 -1.18256904 58.49581283 -2.78426985 68.37646484 -1.59082031 C69.36646484 -0.60082031 69.36646484 -0.60082031 70.37646484 0.40917969 C70.19465493 5.09671346 68.04547063 7.14477548 64.81396484 10.34667969 C55.43955301 20.31118326 49.01395211 32.5605437 46.48974609 46.06152344 C39.52404318 81.72935895 17.30687921 116.04755591 -12.74853516 136.53417969 C-32.19241271 149.40917969 -32.19241271 149.40917969 -40.62353516 149.40917969 C-41.08501953 148.25804687 -41.54650391 147.10691406 -42.02197266 145.92089844 C-48.39744892 130.26355201 -55.44061358 114.98640846 -65.62353516 101.40917969 C-82.47420927 78.11102029 -93.33784247 52.52286168 -102.62353516 25.40917969 C-102.94402832 24.48331055 -103.26452148 23.55744141 -103.59472656 22.60351562 C-104.46610653 20.08291888 -105.32896672 17.55967469 -106.18603516 15.03417969 C-106.43772461 14.2971582 -106.68941406 13.56013672 -106.94873047 12.80078125 C-107.92157672 9.87664339 -108.62353516 7.51348451 -108.62353516 4.40917969 C-73.28804834 -6.86122395 -36.16475894 -7.46048983 0 0 Z " fill="#F19A9B" transform="translate(897.62353515625,287.5908203125)"/>
<path d="M0 0 C1.16789063 0.17144531 2.33578125 0.34289062 3.5390625 0.51953125 C28.88279015 4.72539612 57.51502647 18.35411067 72.8984375 39.625 C82.0017094 53.45275479 85.05231435 66.57299427 82.5390625 83.015625 C80.04182147 92.12320994 75.02213728 99.8687479 69 107 C73.69265 105.40403438 78.38414594 103.80473129 83.07470703 102.20263672 C84.66262792 101.66075512 86.25083361 101.11970717 87.83935547 100.57958984 C90.15412186 99.79236403 92.46794401 99.00244408 94.78125 98.2109375 C95.93028809 97.81838776 95.93028809 97.81838776 97.10253906 97.41790771 C100.94413438 96.09427074 104.75991856 94.72578135 108.55078125 93.26269531 C109.27422729 92.9839859 109.99767334 92.70527649 110.74304199 92.41812134 C112.10263896 91.88963717 113.45940526 91.35378693 114.81262207 90.80917358 C118.34173627 89.43378338 121.20692392 88.6995494 125 89 C125.33 90.65 125.66 92.3 126 94 C124.70954304 94.58600461 123.41753112 95.16858462 122.125 95.75 C121.40570312 96.07484375 120.68640625 96.3996875 119.9453125 96.734375 C117 98 117 98 114.73828125 98.77172852 C108.03530108 101.15471004 103.72140875 104.4120542 98.75 109.4375 C97.41285494 110.75012213 96.07433661 112.06134696 94.734375 113.37109375 C94.10305664 113.99435547 93.47173828 114.61761719 92.82128906 115.25976562 C91.17152039 116.83611296 89.48575562 118.3040421 87.71875 119.74609375 C85.46402769 121.61531038 83.61951613 123.39142021 81.75 125.625 C79.02097697 128.83772295 76.1970564 131.9262167 73.3125 135 C65.30399107 143.78863765 58.26965055 153.40043544 51.8125 163.375 C48.63858812 168.23464101 45.10095408 172.47055678 41.140625 176.70703125 C39.24835533 178.73396975 37.46491638 180.81064011 35.6875 182.9375 C21.59199708 198.96831224 0.68838748 215.13269095 -21.29614258 217.21777344 C-41.08940255 218.19104762 -57.50322172 212.98431359 -72.84765625 200.02734375 C-80.06721098 193.2270735 -85.67406628 183.57643477 -86.17358398 173.49755859 C-86.20186471 172.04792593 -86.22574626 170.59820322 -86.24609375 169.1484375 C-86.27905905 167.5585888 -86.3122702 165.96874518 -86.34570312 164.37890625 C-86.39287693 161.88431621 -86.43726634 159.38974263 -86.47680664 156.89501953 C-86.67509736 144.96195502 -87.07837471 134.82982614 -92.6875 124.0625 C-93.04199219 123.3722876 -93.39648438 122.6820752 -93.76171875 121.97094727 C-98.59728965 112.73910846 -103.91559969 105.59119951 -112 99 C-113.46333172 97.69307512 -114.92151172 96.38036349 -116.375 95.0625 C-119.30757779 92.43756996 -122.29984934 89.99842014 -125.4375 87.625 C-130.79129892 83.40454872 -135.55791589 78.62910389 -140.375 73.8125 C-141.16060303 73.02762207 -141.94620605 72.24274414 -142.75561523 71.43408203 C-152.89340831 61.19915647 -152.89340831 61.19915647 -153.25 57.1875 C-153.12625 56.1046875 -153.12625 56.1046875 -153 55 C-151.02 54.505 -151.02 54.505 -149 54 C-148.55197021 54.47832275 -148.10394043 54.95664551 -147.64233398 55.44946289 C-145.57525341 57.65493433 -143.50638807 59.85872408 -141.4375 62.0625 C-140.73302734 62.81466797 -140.02855469 63.56683594 -139.30273438 64.34179688 C-134.94783847 68.9776538 -130.52976759 73.53472584 -126 78 C-126.144375 77.31035156 -126.28875 76.62070312 -126.4375 75.91015625 C-129.46917605 60.56229623 -127.37957001 47.50245125 -119 34 C-105.64845498 16.35140601 -85.91981742 6.68215955 -65 1 C-63.74960937 0.6596875 -62.49921875 0.319375 -61.2109375 -0.03125 C-42.01563391 -4.2534349 -19.20791429 -3.5147349 0 0 Z M-57 6 C-57.71720215 6.15065918 -58.4344043 6.30131836 -59.17333984 6.45654297 C-78.77964945 10.71842818 -101.20727881 19.83991336 -113 37 C-119.66989521 48.28928156 -123.134915 59.00859778 -120.31640625 72.19921875 C-118.24261894 78.91966641 -115.3174835 84.46917219 -111 90 C-110.45988281 90.71542969 -109.91976562 91.43085938 -109.36328125 92.16796875 C-91.28418281 114.32564906 -59.93519861 125.80605886 -32.31713867 128.83666992 C-14.38763192 130.10048196 3.62407883 129.86655676 21 125 C21.65242676 124.82871582 22.30485352 124.65743164 22.97705078 124.48095703 C42.24989696 119.32998582 60.96620261 109.02021937 72 92 C77.49835091 81.74088183 78.6037034 70.75952495 75.9375 59.375 C69.87111463 39.93435105 52.36138817 26.95407601 35.0925293 17.83862305 C20.88581551 10.7686746 5.6705411 6.95490782 -10 5 C-11.38058594 4.80470703 -11.38058594 4.80470703 -12.7890625 4.60546875 C-27.1904384 2.89101924 -42.8164454 3.01316546 -57 6 Z " fill="#B94848" transform="translate(585,283)"/>
<path d="M0 0 C3.20602098 0.65296857 5.69169533 1.80105623 8.53515625 3.40625 C9.41623047 3.89818848 10.29730469 4.39012695 11.20507812 4.89697266 C12.14802734 5.42597168 13.09097656 5.9549707 14.0625 6.5 C58.41455374 30.88205694 107.97042204 42.84066823 158 49 C158.66980896 49.0864679 159.33961792 49.17293579 160.02972412 49.26202393 C173.29143302 50.95126925 186.39074558 51.3241701 199.75 51.25 C201.27335464 51.24484879 201.27335464 51.24484879 202.82748413 51.23959351 C217.30572923 51.18220852 231.63740455 50.97916328 246 49 C247.20736816 48.83870605 248.41473633 48.67741211 249.65869141 48.51123047 C264.77896562 46.46912078 279.80043994 43.99177411 294.75 40.9375 C295.8961377 40.70450195 297.04227539 40.47150391 298.22314453 40.23144531 C305.05639768 38.78388383 311.62155558 36.93758591 318.23144531 34.67407227 C321.01449607 33.99647058 322.35672145 34.01134414 325 35 C323.25084555 36.43852875 321.50064205 37.87578198 319.75 39.3125 C318.77546875 40.11300781 317.8009375 40.91351562 316.796875 41.73828125 C314 44 314 44 311.640625 45.54296875 C311.09921875 46.02378906 310.5578125 46.50460937 310 47 C310 48.32 310 49.64 310 51 C311.98 51 313.96 51 316 51 C315.67 51.66 315.34 52.32 315 53 C314.34 53 313.68 53 313 53 C312.74814941 53.57347168 312.49629883 54.14694336 312.23681641 54.73779297 C305.30044012 67.42481678 290.5060357 78.18150826 277.95947266 84.94238281 C275.98630287 86.00739297 274.04662926 87.12006773 272.10546875 88.2421875 C229.59328377 112.28953646 180.83035422 120.50077851 133.36767578 108.17773438 C90.05738345 96.15720133 53.33490459 69.77257403 21.36450195 38.93579102 C18.08259987 35.8003686 15.019757 33.18132004 11 31 C9.1875 29.4375 9.1875 29.4375 8 28 C8 27.34 8 26.68 8 26 C7.46375 25.79375 6.9275 25.5875 6.375 25.375 C3.5236539 23.72422068 1.76739621 21.65091415 -0.33984375 19.14453125 C-2.03831596 17.70335903 -2.03831596 17.70335903 -4.69140625 18.32421875 C-5.45324219 18.54722656 -6.21507812 18.77023437 -7 19 C-5.17778624 12.38757278 -2.94776396 6.19479329 0 0 Z " fill="#F2A6A6" transform="translate(386,614)"/>
<path d="M0 0 C1.03640625 0.22816406 2.0728125 0.45632812 3.140625 0.69140625 C5.75 1.4375 5.75 1.4375 8.75 3.4375 C7.46318849 6.91254429 5.8848627 10.10908285 4.08520508 13.34619141 C-0.77515814 22.09693369 -4.62328641 31.11898468 -8.25 40.4375 C-8.50974609 41.10249512 -8.76949219 41.76749023 -9.03710938 42.45263672 C-10.46110068 46.10687662 -11.86524654 49.76822239 -13.25 53.4375 C-14.82974609 53.05658203 -14.82974609 53.05658203 -16.44140625 52.66796875 C-26.00669282 50.37775181 -35.57137464 48.20199589 -45.25 46.4375 C-46.84134766 46.12619141 -46.84134766 46.12619141 -48.46484375 45.80859375 C-68.8133022 42.4132267 -91.07538574 43.22810239 -111.34375 47.015625 C-118.86392921 48.40092117 -126.24533684 48.6820818 -133.875 48.75 C-134.92437744 48.76756348 -135.97375488 48.78512695 -137.05493164 48.80322266 C-144.26690205 48.79755955 -150.37756669 47.51843538 -157.25 45.4375 C-161.62323633 44.53759216 -165.84845112 44.21729263 -170.3125 44.125 C-171.49972656 44.08761719 -172.68695313 44.05023438 -173.91015625 44.01171875 C-177.90926172 44.52154623 -179.50541776 45.52043015 -182.25 48.4375 C-183.35009851 51.55054473 -183.07624989 54.2640689 -182.25 57.4375 C-180.77404775 59.66657744 -179.11695053 61.44725631 -177.25 63.359375 C-168.42075354 72.5335139 -163.00070641 84.08775475 -160.375 96.4375 C-152.87232257 131.6223318 -132.89228169 167.28887572 -102.36279297 187.14355469 C-95.55183795 191.31481209 -88.36634558 194.82775949 -81.25 198.4375 C-81.58 205.3675 -81.91 212.2975 -82.25 219.4375 C-129.88391761 202.86918083 -158.07691661 166.67634487 -179.75048828 122.62207031 C-185.54644677 110.31297188 -190.57016376 97.57114192 -194.9375 84.6875 C-199.00889753 72.97124812 -205.07918709 62.74842634 -213.25 53.4375 C-214.3471104 52.16992497 -215.4433995 50.90163884 -216.5390625 49.6328125 C-218.27746936 47.6215204 -220.01838379 45.61285365 -221.77026367 43.61328125 C-229.66304936 34.59702223 -229.66304936 34.59702223 -229.25 27.4375 C-223.02778933 23.81644734 -218.5092356 22.866773 -211.37109375 22.93359375 C-209.97649681 22.9194619 -209.97649681 22.9194619 -208.5537262 22.90504456 C-205.59809108 22.87656206 -202.64326054 22.87330726 -199.6875 22.875 C-180.98193883 22.85175173 -165.72219614 21.56140161 -148.4375 13.625 C-145.97714115 12.53266153 -143.51045471 11.45503286 -141.04296875 10.37890625 C-139.86911621 9.86602051 -138.69526367 9.35313477 -137.48583984 8.82470703 C-93.80938821 -9.8994214 -45.68408128 -10.05928941 0 0 Z " fill="#F5B7B7" transform="translate(381.25,246.5625)"/>
<path d="M0 0 C-0.04924688 15.80824762 -4.29658299 31.32062485 -10.3359375 45.87890625 C-11.10606103 48.3387714 -11.1170922 50.43748216 -11 53 C-9.68 53 -8.36 53 -7 53 C0.72444183 39.06313474 7.09311078 24.79381355 13 10 C24.37035763 23.37405122 25.59179688 41.73938463 25.4375 58.5625 C25.43144241 59.67408981 25.43144241 59.67408981 25.42526245 60.80813599 C25.13745156 98.66668956 12.30089592 136.70051772 -14 164.4375 C-21.7645702 171.94569288 -30.07390951 177.00839112 -41 177.25 C-49.32385188 177.06548112 -54.99167228 174.79159445 -61 169 C-75.9643037 149.62000012 -76.95535862 122.48025483 -74.22631836 99.16870117 C-70.01595624 67.93477789 -57.45504625 29.71801311 -32 9 C-28.4373234 6.46959968 -24.7859328 4.18029166 -21 2 C-20.38125 1.63519531 -19.7625 1.27039063 -19.125 0.89453125 C-13.39730971 -2.03815633 -6.0168023 -2.00560077 0 0 Z " fill="#F19899" transform="translate(899,808)"/>
<path d="M0 0 C8.34386434 -0.44303704 15.65782486 -0.06412194 23.75 2 C36.34782844 5.07466966 48.03088676 4.77237535 60.77124023 2.55859375 C74.2101676 0.2335831 87.26025051 -0.44801727 100.875 -0.5 C102.21401367 -0.51498535 102.21401367 -0.51498535 103.58007812 -0.53027344 C121.52886167 -0.69536527 141.12190588 1.43352255 158 8 C159.40693731 12.22081194 157.60083883 14.7091666 155.75 18.5 C155.20690186 19.62680176 155.20690186 19.62680176 154.65283203 20.77636719 C148.32647441 33.6632934 140.90649399 45.80153616 132.875 57.6875 C117.43566187 80.54379547 102.93901984 106.5983702 98.32885742 134.07226562 C97.97701056 136.06641626 97.49958614 138.03764257 97 140 C94 141 94 141 90.4453125 139.48046875 C88.99741235 138.73101915 87.55771625 137.96558335 86.125 137.1875 C85.36558105 136.77806152 84.60616211 136.36862305 83.82373047 135.94677734 C53.23178331 119.00839097 34.03962055 88.58057519 24.30126953 55.63623047 C23.41720667 52.31857011 22.64596329 48.98356403 21.87890625 45.63671875 C18.17967747 30.33013212 11.37400003 18.11508238 0.84375 6.59375 C-1 4 -1 4 -0.78125 1.65625 C-0.5234375 1.1096875 -0.265625 0.563125 0 0 Z " fill="#F19B9B" transform="translate(205,297)"/>
<path d="M0 0 C11.02621851 2.24542499 21.68244076 5.772652 32.38139343 9.21534729 C36.38331198 10.50011366 40.40137806 11.7067809 44.4375 12.87890625 C56.47297212 16.55050846 62.62999354 20.20468118 68.85302734 31.14013672 C70.88090796 34.42842845 73.39921107 37.28596972 75.9375 40.1875 C76.44289307 40.76862549 76.94828613 41.34975098 77.46899414 41.94848633 C89.79909933 55.96239496 103.92744555 67.11765637 119 78 C117.22678583 83.42783864 115.36361666 88.8174853 113.43359375 94.19140625 C108.12251147 109.0050977 102.9768621 123.84335839 98.3125 138.875 C98.09858612 139.56385284 97.88467224 140.25270569 97.66427612 140.96243286 C95.15284147 148.93081886 95.15284147 148.93081886 93 157 C89.20995991 155.38855778 86.37094192 152.87416102 83.3125 150.1875 C75.47593104 143.43627215 67.27172944 137.20476115 59 131 C58.35772461 130.51499023 57.71544922 130.02998047 57.05371094 129.53027344 C22.60724235 103.55630781 -16.96750448 81.58212475 -59 71 C-56.80155584 68.80155584 -54.69183724 67.95522133 -51.84619141 66.79345703 C-32.79924622 59.01584349 -13.48543234 45.86266584 -4 27 C-1.21754204 20.0729603 0.13810876 13.67276769 0.0625 6.1875 C0.05347656 5.02605469 0.04445313 3.86460937 0.03515625 2.66796875 C0.02355469 1.78753906 0.01195312 0.90710938 0 0 Z " fill="#F5B7B7" transform="translate(262,531)"/>
<path d="M0 0 C4.38948744 2.38715961 8.08589114 5.28861774 11.8515625 8.55078125 C12.50511719 9.06125 13.15867187 9.57171875 13.83203125 10.09765625 C34.65799553 26.89144781 46.58712639 57.50997961 49.45703125 83.42578125 C51.34167882 105.08878127 50.65680399 129.04124574 36.9140625 147.05078125 C31.35162674 153.54895387 24.84269535 157.79506084 16.28125 158.875 C4.62402763 159.35656617 -4.19027937 154.58826226 -13.1484375 147.55078125 C-13.82519531 147.03902344 -14.50195312 146.52726563 -15.19921875 146 C-36.61315366 128.70578003 -48.62121391 96.99254172 -51.74609375 70.39453125 C-53.64166409 50.02875994 -52.70853294 30.5029435 -42.1484375 12.55078125 C-41.8184375 12.55078125 -41.4884375 12.55078125 -41.1484375 12.55078125 C-40.9834375 13.70578125 -40.8184375 14.86078125 -40.6484375 16.05078125 C-38.27498878 26.72288401 -31.37677755 40.47778124 -24.1484375 48.55078125 C-21.54048148 49.39903612 -21.54048148 49.39903612 -19.1484375 49.55078125 C-19.74334368 45.80755136 -20.82322905 42.89835814 -22.5859375 39.55078125 C-26.40729922 32.25026931 -28.29079097 26.02852748 -28.24609375 17.71484375 C-28.24287109 16.65136719 -28.23964844 15.58789062 -28.23632812 14.4921875 C-28.22794922 13.39777344 -28.21957031 12.30335938 -28.2109375 11.17578125 C-28.20642578 10.05816406 -28.20191406 8.94054687 -28.19726562 7.7890625 C-28.18552994 5.04291321 -28.16911113 2.29687539 -28.1484375 -0.44921875 C-17.85820443 -4.56531198 -10.26270526 -4.70705474 0 0 Z " fill="#F09191" transform="translate(231.1484375,806.44921875)"/>
<path d="M0 0 C1.09739502 -0.00555908 2.19479004 -0.01111816 3.32543945 -0.0168457 C17.87726325 0.11202898 32.59997463 3.31734166 43.6875 13.3125 C44.24953125 13.79203125 44.8115625 14.2715625 45.390625 14.765625 C46.6875 16.3125 46.6875 16.3125 46.8125 19.9375 C45.16160772 29.07577239 37.57725635 34.62642013 30.36425781 39.64306641 C2.74815221 58.1428256 -31.14196755 68.36306607 -64.25 68.6875 C-65.36366943 68.70167969 -66.47733887 68.71585938 -67.62475586 68.73046875 C-76.25065829 68.67906672 -85.24845611 68.04791416 -92.5625 63.125 C-93.14 62.526875 -93.7175 61.92875 -94.3125 61.3125 C-93.3125 58.3125 -93.3125 58.3125 -90.3125 56.65844727 C-88.98405611 56.05439634 -87.65027125 55.46200896 -86.3125 54.87890625 C-85.24793579 54.40009254 -85.24793579 54.40009254 -84.16186523 53.91160583 C-81.88304833 52.88943711 -79.59801177 51.88209722 -77.3125 50.875 C-75.80295384 50.20083532 -74.29383382 49.52571559 -72.78515625 48.84960938 C-69.2439642 47.26526138 -65.69804883 45.69192623 -62.14941406 44.12432861 C-59.68116982 43.0334821 -57.21550748 41.93685932 -54.75 40.83984375 C-53.615625 40.33582031 -52.48125 39.83179688 -51.3125 39.3125 C-51.3125 37.9925 -51.3125 36.6725 -51.3125 35.3125 C-54.18776069 35.4541533 -57.06263536 35.60068532 -59.9375 35.75 C-60.74574219 35.78931641 -61.55398437 35.82863281 -62.38671875 35.86914062 C-66.77150215 36.10085682 -70.98143775 36.55708217 -75.3125 37.3125 C-77.99060075 37.42446073 -80.62982686 37.35875299 -83.3125 37.3125 C-76.50607706 22.23876334 -56.03589554 13.26600946 -41.4375 7.58251953 C-37.11578078 5.96074938 -32.74729332 4.58826246 -28.3125 3.3125 C-27.20261719 2.99152344 -26.09273438 2.67054688 -24.94921875 2.33984375 C-16.62228242 0.31233377 -8.54312932 0.03656289 0 0 Z " fill="#F19D9E" transform="translate(203.3125,504.6875)"/>
<path d="M0 0 C1.19093262 0.01305176 2.38186523 0.02610352 3.60888672 0.03955078 C31.77444459 0.58790678 58.5572067 11.59816311 78.75 31.375 C79.50023437 32.08011719 80.25046875 32.78523437 81.0234375 33.51171875 C82.75 35.375 82.75 35.375 82.75 37.375 C72.07864245 36.42532415 61.41478185 35.39529037 50.75 34.375 C50.75 36.025 50.75 37.675 50.75 39.375 C51.55824219 39.61992188 52.36648438 39.86484375 53.19921875 40.1171875 C57.47603549 41.63218749 61.48047868 43.52883698 65.5625 45.5 C67.24207014 46.30363075 68.92176042 47.10701043 70.6015625 47.91015625 C71.87628418 48.52141357 71.87628418 48.52141357 73.17675781 49.14501953 C77.25497123 51.09435911 81.34603555 53.01616893 85.4375 54.9375 C86.85808471 55.60544367 88.2786588 56.27340993 89.69921875 56.94140625 C90.70597656 57.41449219 91.71273438 57.88757813 92.75 58.375 C92.75 59.695 92.75 61.015 92.75 62.375 C85.86695261 69.08393156 74.35345762 68.89797682 65.375 68.8125 C64.24231689 68.80492676 63.10963379 68.79735352 61.94262695 68.78955078 C27.26085292 68.12245313 -11.87137234 54.70645282 -37.3125 30.6875 C-41.04214262 26.72076518 -43.17587734 23.45043456 -43.375 17.875 C-41.32386776 11.4936997 -36.25854336 8.76520085 -30.5625 5.6875 C-20.62488471 1.1022719 -10.86022525 -0.13841616 0 0 Z " fill="#F19D9E" transform="translate(950.25,540.625)"/>
<path d="M0 0 C-0.58265625 0.49886719 -1.1653125 0.99773437 -1.765625 1.51171875 C-17.747081 15.50805679 -30.37644852 32.01551112 -42.46875 49.3828125 C-43.13946533 50.33232788 -43.13946533 50.33232788 -43.82373047 51.30102539 C-44.77315074 52.67234454 -45.66565874 54.08296257 -46.5390625 55.50390625 C-48 57 -48 57 -50.3046875 57.20703125 C-51.15289063 57.07683594 -52.00109375 56.94664062 -52.875 56.8125 C-53.71804688 56.69519531 -54.56109375 56.57789063 -55.4296875 56.45703125 C-57.07131344 56.1651312 -58.70833115 55.8449855 -60.3371582 55.48852539 C-74.98608337 52.80103119 -89.27030395 54.79806547 -103 60 C-106.96309319 61.14080044 -109.23458273 60.86898341 -113.125 59.5625 C-123.92688188 56.45352463 -132.10780444 57.67143857 -142 63 C-149.96106823 67.8585139 -156.06543266 73.84921269 -162 81 C-167.16196278 76.12540422 -169.10221239 70.98173131 -170 64 C-170.02378202 61.65883012 -169.99370782 59.31675096 -169.921875 56.9765625 C-169.89052776 55.61901837 -169.86105406 54.26142995 -169.83325195 52.90380859 C-169.81863922 52.20374695 -169.80402649 51.5036853 -169.78897095 50.78240967 C-169.53884475 36.93556428 -170.11415018 25.24230733 -176.73046875 12.7265625 C-177.35888672 11.37691406 -177.35888672 11.37691406 -178 10 C-177.67 9.34 -177.34 8.68 -177 8 C-175.98421875 8.53109375 -174.9684375 9.0621875 -173.921875 9.609375 C-172.53147873 10.32336227 -171.14084036 11.03687821 -169.75 11.75 C-169.08742188 12.09804688 -168.42484375 12.44609375 -167.7421875 12.8046875 C-147.91229425 22.90670859 -126.05108791 25.47729193 -104.125 25.5625 C-103.31654633 25.57108032 -102.50809265 25.57966064 -101.67514038 25.58850098 C-80.57380832 25.74595162 -60.65102678 20.83234986 -41.75 11.5 C-33.35542853 7.35530897 -24.47428876 5.08439656 -15.45410156 2.70117188 C-12.24254139 1.78358325 -9.12457081 0.64865871 -6.00341797 -0.53808594 C-3.66601202 -1.07700527 -2.25266186 -0.74857298 0 0 Z " fill="#620E13" transform="translate(675,392)"/>
<path d="M0 0 C0.82016602 0.1232666 1.64033203 0.2465332 2.48535156 0.37353516 C27.26216594 4.29644324 52.81973541 14.06593136 74.99609375 25.58984375 C79.67245585 27.93433325 84.22346261 29.55760001 89.3125 30.75 C90.21258789 30.96116455 91.11267578 31.1723291 92.04003906 31.38989258 C103.25342895 33.68869235 114.67473478 33.6520585 126.0793457 33.72363281 C145.13773619 33.86427689 145.13773619 33.86427689 154 38 C154 38.66 154 39.32 154 40 C153.12601563 39.97905273 152.25203125 39.95810547 151.3515625 39.93652344 C132.74541981 39.55133338 115.30029188 40.19395639 97 44 C65.42112399 50.443209 40.05798112 45.77895271 11.25 32.3125 C-22.00949627 17.13435316 -60.49945829 16.85971015 -95.69335938 24.61962891 C-98.25348102 25.04179969 -100.41393458 25.29746753 -103 25 C-104.57739258 23.53125 -104.57739258 23.53125 -105.89453125 21.5 C-106.37470703 20.778125 -106.85488281 20.05625 -107.34960938 19.3125 C-107.83236328 18.549375 -108.31511719 17.78625 -108.8125 17 C-109.31458984 16.236875 -109.81667969 15.47375 -110.33398438 14.6875 C-111.57185736 12.80121736 -112.79265038 10.90590798 -114 9 C-85.98006699 -9.67995534 -30.91379388 -4.76777273 0 0 Z " fill="#F7C7C7" transform="translate(869,224)"/>
<path d="M0 0 C1.03640625 0.22816406 2.0728125 0.45632812 3.140625 0.69140625 C5.75 1.4375 5.75 1.4375 8.75 3.4375 C7.0503494 8.17224097 4.61340973 12.39917111 2.125 16.75 C1.49464844 17.86084961 1.49464844 17.86084961 0.8515625 18.99414062 C-0.17948495 20.81019011 -1.21436046 22.62406533 -2.25 24.4375 C-3.36632812 24.11136719 -4.48265625 23.78523438 -5.6328125 23.44921875 C-47.49249114 11.59366485 -89.46943653 15.37825924 -129.85717773 31.07958984 C-143.20309172 36.21501613 -156.83878846 37.6243874 -171.05322266 37.62280273 C-173.21667852 37.62496667 -175.37960429 37.64309784 -177.54296875 37.66210938 C-185.85517576 37.69473534 -193.8413873 37.15516459 -202.05981445 35.89282227 C-210.72337252 34.6563077 -218.70486066 35.79307456 -227.25 37.4375 C-229.6794516 33.7933226 -229.41179575 31.72508728 -229.25 27.4375 C-223.02778933 23.81644734 -218.5092356 22.866773 -211.37109375 22.93359375 C-209.97649681 22.9194619 -209.97649681 22.9194619 -208.5537262 22.90504456 C-205.59809108 22.87656206 -202.64326054 22.87330726 -199.6875 22.875 C-180.98193883 22.85175173 -165.72219614 21.56140161 -148.4375 13.625 C-145.97714115 12.53266153 -143.51045471 11.45503286 -141.04296875 10.37890625 C-139.86911621 9.86602051 -138.69526367 9.35313477 -137.48583984 8.82470703 C-93.80938821 -9.8994214 -45.68408128 -10.05928941 0 0 Z " fill="#F7C7C8" transform="translate(381.25,246.5625)"/>
<path d="M0 0 C3.64316286 0.59345639 5.66289778 2.03267235 8.375 4.5 C9.10460937 5.1290625 9.83421875 5.758125 10.5859375 6.40625 C12.40679134 9.74615871 11.78925645 11.74914154 10.80517578 15.32275391 C10.53946777 16.20624512 10.27375977 17.08973633 10 18 C9.4212898 20.10270361 8.84321081 22.205581 8.265625 24.30859375 C7.59408547 26.68499066 6.92219289 29.06128782 6.25 31.4375 C3.35212749 41.78308053 0.7020937 52.15717424 -1.63964844 62.64453125 C-3.0617384 68.99362182 -4.56385045 75.31403409 -6.16015625 81.62109375 C-6.9424153 84.72598552 -7.72227875 87.8314685 -8.5 90.9375 C-8.69502106 91.71564056 -8.89004211 92.49378113 -9.0909729 93.29550171 C-11.26004151 102.01421859 -13.22113595 110.71542302 -14.6640625 119.5859375 C-14.79121643 120.36564407 -14.91837036 121.14535065 -15.04937744 121.94868469 C-15.64149659 125.63755801 -16.19902007 129.3279531 -16.70898438 133.02905273 C-19.86856627 154.66874773 -31.46919402 174.15066449 -48.6875 187.6875 C-62.89824491 197.89471017 -80.31760844 205 -98 205 C-99.65 201.7 -101.3 198.4 -103 195 C-102.07960938 194.91363281 -101.15921875 194.82726562 -100.2109375 194.73828125 C-82.54023338 192.77686908 -67.69941871 186.86868593 -56 173 C-43.18195255 155.45529755 -38.58480697 134.87268897 -34.55889893 113.90298462 C-32.82145562 104.85395318 -30.81068733 96.02557293 -28.20703125 87.19140625 C-27.09875648 83.42612519 -26.15178736 79.63368252 -25.23046875 75.81884766 C-20.93135663 58.02260371 -15.28092096 40.65348649 -9.55911255 23.27294922 C-9.02224914 21.64038875 -8.48761968 20.00709185 -7.95529175 18.37304688 C-7.20188015 16.0650733 -6.43831751 13.76070536 -5.671875 11.45703125 C-5.44707962 10.76321854 -5.22228424 10.06940582 -4.99067688 9.35456848 C-3.78146835 5.76011787 -2.49757229 2.87403785 0 0 Z " fill="#F7C7C7" transform="translate(381,631)"/>
<path d="M0 0 C0.01417969 1.07636719 0.02835938 2.15273438 0.04296875 3.26171875 C0.28927574 12.15432099 1.24444949 19.18389533 4.94140625 27.36328125 C6 30 6 30 6 34 C2.64287307 36.23808462 1.32046445 36.29627855 -2.625 36.45703125 C-3.78870117 36.5147168 -4.95240234 36.57240234 -6.15136719 36.63183594 C-7.42141602 36.69145508 -8.69146484 36.75107422 -10 36.8125 C-64.80250788 39.84903278 -117.40971765 54.38960271 -166 80 C-166 75.93078464 -164.76678434 74.96254738 -162 72 C-159.50872164 70.0074154 -156.89140358 68.22420938 -154.25 66.4375 C-149.09973499 62.88863346 -144.01496675 59.29672751 -139.05615234 55.48413086 C-129.76276541 48.34196915 -120.0473469 42.02799055 -110 36 C-109.27619141 35.56445801 -108.55238281 35.12891602 -107.80664062 34.68017578 C-76.78136398 16.22254894 -36.68692546 0 0 0 Z " fill="#F7C7C7" transform="translate(895,566)"/>
<path d="M0 0 C0.99 0.495 0.99 0.495 2 1 C3.16483518 14.20146537 0.41184029 23.56894654 -8.125 33.89453125 C-26.22733241 54.66875658 -54.45607816 68.23676465 -82.05175781 70.21923828 C-100.69877438 70.91061851 -120.1764241 70.39187675 -135.41015625 58.046875 C-139.19602843 54.44651743 -142.15240686 50.96540656 -144 46 C-144 45.01 -144 44.02 -144 43 C-143.06285156 43.28875 -142.12570313 43.5775 -141.16015625 43.875 C-109.7048232 52.80999984 -71.99904946 44.94031441 -43 31 C-42.10522949 30.58113525 -42.10522949 30.58113525 -41.19238281 30.15380859 C-25.72530308 22.88896811 -9.57102887 14.65563795 0 0 Z " fill="#EF8F8F" transform="translate(254,532)"/>
<path d="M0 0 C0.474375 0.639375 0.94875 1.27875 1.4375 1.9375 C13.0996705 15.87521597 27.63966614 24.53746037 44 32 C44.66193359 32.30534668 45.32386719 32.61069336 46.00585938 32.92529297 C68.01068235 42.93866358 90.30878926 47.08643405 114.375 47.3125 C115.65955078 47.33038574 116.94410156 47.34827148 118.26757812 47.36669922 C125.71977126 47.35991745 132.02146006 46.63666464 139 44 C139.99 43.67 140.98 43.34 142 43 C140.96921813 49.57123443 137.92952309 55.36678363 132.953125 59.83984375 C127.70728418 63.49519028 122.06022155 66.01809615 116 68 C114.63875 68.45052734 114.63875 68.45052734 113.25 68.91015625 C99.48042275 72.76492072 82.8420624 72.48790754 69 69 C68.38415039 68.84934082 67.76830078 68.69868164 67.13378906 68.54345703 C42.54042555 62.39216164 19.82700989 49.96055727 5.46875 28.45703125 C1.40079768 21.65186633 -1.14647233 15.34123437 -1.125 7.375 C-1.12757813 6.41335938 -1.13015625 5.45171875 -1.1328125 4.4609375 C-1 2 -1 2 0 0 Z " fill="#EF8F8E" transform="translate(902,567)"/>
<path d="M0 0 C-6.94338603 15.63152033 -26.92019215 28.72445116 -42.1484375 35.375 C-44.74637539 36.34299878 -47.34765097 37.19585398 -50 38 C-51.093125 38.4125 -52.18625 38.825 -53.3125 39.25 C-69.30027828 42.50175151 -83.57365353 37.98987045 -97.171875 29.90234375 C-101.7144592 26.84676571 -101.7144592 26.84676571 -103 25 C-102.68377134 19.9199396 -98.40335153 16.40335153 -95 13 C-87.27011561 6.25559888 -79.29476544 1.87667141 -68.9375 1.8125 C-67.89464844 1.79832031 -66.85179687 1.78414063 -65.77734375 1.76953125 C-63 2 -63 2 -60 4 C-61.10408203 4.99580078 -61.10408203 4.99580078 -62.23046875 6.01171875 C-63.20628906 6.89472656 -64.18210937 7.77773438 -65.1875 8.6875 C-66.63189453 9.99267578 -66.63189453 9.99267578 -68.10546875 11.32421875 C-69.06066406 12.20722656 -70.01585937 13.09023438 -71 14 C-71.94488281 14.85207031 -72.88976562 15.70414062 -73.86328125 16.58203125 C-76.44145466 18.96176458 -76.44145466 18.96176458 -76 23 C-71.28081003 22.54975926 -69.50054684 20.83505352 -66.375 17.375 C-48.7750022 -0.90292364 -24.15973051 -5.84425446 0 0 Z " fill="#EA6363" transform="translate(621,454)"/>
<path d="M0 0 C0.54140625 0.4125 1.0828125 0.825 1.640625 1.25 C11.95866435 10.1737097 15.51845936 23.88168174 18.19873047 36.67626953 C19.44061161 42.3644439 20.92093937 46.76275349 24.765625 51.28125 C26.36184054 53.5038286 26.77106384 55.28798699 27 58 C26.34 58.66 25.68 59.32 25 60 C23.00976562 59.82128906 23.00976562 59.82128906 21 59 C19.35684762 56.60671284 17.92096235 54.26920156 16.5 51.75 C5.93413508 33.97950231 -8.76340513 21.05744834 -28.625 14.625 C-42.8046721 11.08375547 -58.59593306 12.28152797 -73 14 C-73.625 11.625 -73.625 11.625 -74 9 C-71.58285085 6.58285085 -70.18986328 6.73870841 -66.89672852 6.51977539 C-58.08986905 5.90803032 -51.90496313 3.31189479 -44.3515625 -1.09375 C-30.53638103 -8.95133573 -12.91713646 -10.10906332 0 0 Z " fill="#B84948" transform="translate(742,316)"/>
<path d="M0 0 C1.18335938 0.16242187 2.36671875 0.32484375 3.5859375 0.4921875 C-0.98339023 5.09302784 -0.98339023 5.09302784 -3.3359375 7.2734375 C-27.95668462 30.42114847 -41.78570026 70.15230977 -43.6171875 103.15209961 C-43.71671705 107.01807599 -43.74283033 110.87498997 -43.7265625 114.7421875 C-43.72432678 115.75933334 -43.72432678 115.75933334 -43.7220459 116.79702759 C-43.66259308 131.86853812 -41.79749543 145.3094378 -36.4140625 159.4921875 C-39.81718988 158.43343676 -42.42759481 157.48316596 -45.4140625 155.4921875 C-46.69610932 151.94281713 -47.32599109 148.24685402 -48.02587891 144.54248047 C-48.28531997 143.17217477 -48.55590152 141.80393289 -48.83740234 140.43798828 C-53.33575339 118.27153755 -53.44372573 93.55377883 -48.4140625 71.4921875 C-48.25309082 70.7379248 -48.09211914 69.98366211 -47.92626953 69.20654297 C-43.82541812 50.30165733 -36.07679477 32.73923381 -25.64501953 16.48535156 C-24.40206496 14.47276109 -23.29597646 12.41928729 -22.19140625 10.328125 C-16.58108053 0.38138616 -11.08049602 -1.07075496 0 0 Z " fill="#EE8E8E" transform="translate(862.4140625,809.5078125)"/>
<path d="M0 0 C11.02621851 2.24542499 21.68244076 5.772652 32.38139343 9.21534729 C36.38331198 10.50011366 40.40137806 11.7067809 44.4375 12.87890625 C55.49180844 16.25755266 62.53055914 19.55833452 68.390625 29.828125 C69.60169452 32.21499018 70.8045946 34.60529538 72 37 C71.22922119 36.85377197 70.45844238 36.70754395 69.66430664 36.55688477 C66.13101893 35.8886112 62.59677725 35.22551945 59.0625 34.5625 C57.85013672 34.33240234 56.63777344 34.10230469 55.38867188 33.86523438 C54.19951172 33.64287109 53.01035156 33.42050781 51.78515625 33.19140625 C50.70113525 32.98717041 49.61711426 32.78293457 48.50024414 32.57250977 C41.01576054 31.3483266 33.73303518 30.85633324 26.15234375 30.90234375 C24.80638878 30.90446617 24.80638878 30.90446617 23.4332428 30.90663147 C20.60129286 30.9121749 17.76942555 30.92471642 14.9375 30.9375 C13.00325636 30.94252233 11.06901147 30.94708394 9.13476562 30.95117188 C4.42314583 30.96212571 -0.28841313 30.97935047 -5 31 C-4.03911169 27.59869661 -3.07540461 24.22177828 -1.9375 20.875 C-0.30798332 15.87781551 0.11562867 11.44723785 0.0625 6.1875 C0.05347656 5.02605469 0.04445313 3.86460937 0.03515625 2.66796875 C0.02355469 1.78753906 0.01195312 0.90710938 0 0 Z " fill="#F7C7C7" transform="translate(262,531)"/>
<path d="M0 0 C3.34196078 2.21187578 6.38402686 4.6929783 9.46484375 7.25 C12.65021386 9.4402894 15.90160159 10.31265094 19.63671875 11.18359375 C21.703125 11.7890625 21.703125 11.7890625 23.703125 13.7890625 C23.328125 16.4140625 23.328125 16.4140625 22.703125 18.7890625 C18.51576668 18.32380046 14.53776542 17.75135663 10.453125 16.7265625 C-8.14066895 12.96182215 -25.3140811 16.72635315 -41.37988281 26.50878906 C-47.87899876 30.84925825 -53.78164223 36.27382973 -59.296875 41.7890625 C-61.921875 41.9140625 -61.921875 41.9140625 -64.296875 41.7890625 C-65.06640625 40.0859375 -65.06640625 40.0859375 -65.296875 37.7890625 C-63.49609375 35.4296875 -63.49609375 35.4296875 -60.984375 33.0390625 C-60.16324219 32.23984375 -59.34210938 31.440625 -58.49609375 30.6171875 C-56.296875 28.7890625 -56.296875 28.7890625 -54.296875 28.7890625 C-54.0390625 27.91765625 -53.78125 27.04625 -53.515625 26.1484375 C-49.38925612 14.77447199 -40.0099085 3.82159228 -29.609375 -2.3359375 C-19.61718046 -6.71242459 -9.26987729 -5.22979708 0 0 Z " fill="#B84848" transform="translate(450.296875,285.2109375)"/>
<path d="M0 0 C2 1 2 1 2.63842773 2.82250977 C2.81833252 3.60424561 2.9982373 4.38598145 3.18359375 5.19140625 C3.38919922 6.05443359 3.59480469 6.91746094 3.80664062 7.80664062 C4.01482422 8.71607422 4.22300781 9.62550781 4.4375 10.5625 C6.17951727 18.09282765 6.17951727 18.09282765 8.66015625 25.40234375 C10 29 10 29 10 33 C24.05414925 40.1542615 38.38214789 46.2178725 54 49 C52.6180762 51.8538595 51.0969329 54.55892325 49.43359375 57.2578125 C48.94826172 58.04800781 48.46292969 58.83820312 47.96289062 59.65234375 C47.45951172 60.46832031 46.95613281 61.28429687 46.4375 62.125 C45.43548275 63.75216398 44.43414727 65.37974805 43.43359375 67.0078125 C42.99072021 67.72598145 42.54784668 68.44415039 42.09155273 69.18408203 C40.96592121 71.00357066 40.96592121 71.00357066 40 73 C34.55058084 73.56885011 31.52504849 71.8733617 27.3125 68.6875 C26.70672119 68.24035645 26.10094238 67.79321289 25.47680664 67.33251953 C10.9762331 56.36333157 1.54885248 43.86854523 -1.6875 25.6640625 C-2.71582634 16.89758049 -2.15953794 8.54174382 0 0 Z " fill="#F7C6C7" transform="translate(787,759)"/>
<path d="M0 0 C10.2493067 3.42942582 16.10413891 10.74237176 21 20 C21.61875 21.134375 22.2375 22.26875 22.875 23.4375 C24.43072869 28.36397417 24.84596283 32.88577015 24 38 C22.33190797 41.16937485 20.24952665 43.37523668 17 45 C10.9998921 45.88796523 6.39614217 44.93255726 1.265625 41.73046875 C-7.59647914 34.96165473 -13.82480949 26.1423914 -15.4375 14.96875 C-15.62921766 10.51131431 -15.48558534 7.82047178 -13.1875 3.9375 C-8.87793609 0.12045768 -5.64467019 -0.80927171 0 0 Z " fill="#B94848" transform="translate(593,314)"/>
<path d="M0 0 C3.95449937 3.31074366 4.54049817 4.80448202 5.0625 9.9375 C4.79177632 18.53695811 -0.41376469 26.29529946 -6.3125 32.25 C-12.17994796 36.60176806 -18.41369472 40.38680019 -25.875 40.125 C-29.64677227 39.16491251 -31.54010019 37.94085864 -34.3125 35.25 C-36.58300262 30.70899476 -35.95368109 25.1512317 -35.3125 20.25 C-31.72198111 11.28528509 -24.57716668 4.58514629 -16.140625 0.09375 C-10.37814833 -2.31844954 -5.57513531 -2.9453545 0 0 Z " fill="#B94948" transform="translate(524.3125,306.75)"/>
<path d="M0 0 C3.15588409 -0.10239951 5.96856137 0.07774874 9 1 C11.39661741 3.26158609 12.65546927 5.92283825 14.0625 8.875 C14.47459717 9.68074463 14.88669434 10.48648926 15.3112793 11.31665039 C16.58729301 13.8581038 17.80116903 16.42133617 19 19 C19.37576172 19.79422363 19.75152344 20.58844727 20.13867188 21.40673828 C34.96369441 53.16426204 38.79979701 87.64008006 27 121 C26.80019531 121.75152344 26.60039062 122.50304687 26.39453125 123.27734375 C25.8125 125.1875 25.8125 125.1875 24 128 C21.041542 129.16225136 18.15325015 129.67608122 15 130 C15.99309994 127.45546744 17.0204425 124.95655126 18.18359375 122.484375 C24.36707476 109.00014851 25.25603777 95.81121834 25.3125 81.1875 C25.31805908 79.97199463 25.32361816 78.75648926 25.3293457 77.50415039 C25.26810401 69.81543926 24.54569666 62.53029979 23 55 C22.83910889 54.21536377 22.67821777 53.43072754 22.51245117 52.62231445 C18.82388216 35.80191998 12.74133593 19.15778134 2.53125 5.1796875 C1 3 1 3 0 0 Z " fill="#ED8C8C" transform="translate(261,824)"/>
<path d="M0 0 C1.75693865 1.21073016 3.47711163 2.46376172 5.20043945 3.72167969 C11.35184179 7.45040925 19.34449863 7.19690774 26.3125 7.1875 C27.25657715 7.18951416 28.2006543 7.19152832 29.17333984 7.19360352 C36.88975177 7.0850212 44.15699076 5.93288218 51.65356445 4.14794922 C52.43046631 3.96377441 53.20736816 3.77959961 54.0078125 3.58984375 C54.68473145 3.41702881 55.36165039 3.24421387 56.05908203 3.06616211 C58.28984234 2.77461998 59.86813746 3.14439747 62 3.8125 C39.76707293 11.48970395 19.3429098 17.95718933 -4.3125 18.0625 C-6.03243164 18.0934375 -6.03243164 18.0934375 -7.78710938 18.125 C-16.62714977 18.16502282 -25.73612894 17.68241321 -33.25 12.625 C-33.8275 12.026875 -34.405 11.42875 -35 10.8125 C-33.46499549 6.20748647 -30.02169014 5.35187686 -25.83398438 3.22924805 C-8.31242147 -5.04664254 -8.31242147 -5.04664254 0 0 Z " fill="#EF8F8F" transform="translate(144,555.1875)"/>
<path d="M0 0 C4.4625942 1.92808948 8.85923436 3.96774095 13.23828125 6.078125 C14.11742187 6.49835937 14.9965625 6.91859375 15.90234375 7.3515625 C18.05751003 8.3822942 20.21108047 9.41621926 22.36328125 10.453125 C22.36328125 11.773125 22.36328125 13.093125 22.36328125 14.453125 C15.48023386 21.16205656 3.96673887 20.97610182 -5.01171875 20.890625 C-6.14440186 20.88305176 -7.27708496 20.87547852 -8.4440918 20.86767578 C-28.31795078 20.4854057 -49.50475112 15.68826394 -67.63671875 7.453125 C-63.73835078 5.99244618 -60.79403952 6.95532691 -56.82421875 7.890625 C-41.78056439 11.02700974 -22.49338127 12.52565401 -9.0703125 3.78125 C-6.72479174 2.14147732 -6.72479174 2.14147732 -4.734375 0.4296875 C-2.63671875 -0.546875 -2.63671875 -0.546875 0 0 Z " fill="#EF8E8E" transform="translate(1020.63671875,588.546875)"/>
<path d="M0 0 C3.93016228 2.882119 7.65478234 5.96075831 11.25 9.25 C11.25 9.58 11.25 9.91 11.25 10.25 C9.36667969 10.61351562 9.36667969 10.61351562 7.4453125 10.984375 C5.75471948 11.32046692 4.06464637 11.65918083 2.375 12 C1.50182129 12.17611816 0.62864258 12.35223633 -0.27099609 12.53369141 C-4.89101742 13.50764185 -9.07683985 14.612804 -13.375 16.625 C-18.34157147 18.8323651 -21.73377577 17.90113642 -26.75 16.25 C-28.26826439 15.86473091 -29.78902844 15.4891338 -31.3125 15.125 C-33.0140625 14.691875 -33.0140625 14.691875 -34.75 14.25 C-33.11502168 7.16509395 -28.68747079 1.09311893 -22.5625 -2.75 C-14.54672092 -5.60005478 -7.23765819 -4.72992757 0 0 Z " fill="#330607" transform="translate(587.75,434.75)"/>
<path d="M0 0 C4.83465443 -0.57145071 7.81640763 1.3346249 11.6875 3.9375 C12.30326904 4.34427979 12.91903809 4.75105957 13.5534668 5.17016602 C19.17208127 8.96538107 24.19938761 13.20753806 29 18 C29.76957031 18.75796875 30.53914062 19.5159375 31.33203125 20.296875 C42.54002478 31.98221068 51.97199477 49.33939206 53.203125 65.69921875 C53 68 53 68 51 70 C48.875 69.625 48.875 69.625 47 69 C46.57267578 67.48792969 46.57267578 67.48792969 46.13671875 65.9453125 C38.14712212 38.06225046 24.41419828 19.19902576 -1 5 C-0.67 3.35 -0.34 1.7 0 0 Z " fill="#BA4B4A" transform="translate(714,228)"/>
<path d="M0 0 C1 1 1 1 1.125 3.5 C1 6 1 6 0 7 C-2.30769172 7.32754334 -4.62164914 7.61125675 -6.9375 7.875 C-24.70061139 10.12940384 -40.10337852 17.69457196 -51.46044922 31.81591797 C-54.46549711 35.77346326 -57.2618434 39.85458363 -60 44 C-60.66 44.99 -61.32 45.98 -62 47 C-63.65 46.67 -65.3 46.34 -67 46 C-66.54863373 40.7736537 -64.62558765 37.36989881 -61.5625 33.25 C-61.11583984 32.64019287 -60.66917969 32.03038574 -60.20898438 31.40209961 C-46.44441946 13.02601935 -24.10133948 -2.67792661 0 0 Z " fill="#BA4B4A" transform="translate(492,191)"/>
<path d="M0 0 C5.34987918 0.13155441 9.16908751 2.89711526 13 6.4375 C17.96168685 12.87733645 22.89570387 20.01788358 22 28.4375 C20.5 30.8125 20.5 30.8125 19 32.4375 C12.53075969 32.16794832 8.62274105 29.94771997 4 25.4375 C-0.64949616 19.59740438 -4.31338986 13.83244813 -4.1875 6.1875 C-4.17783203 4.88039063 -4.17783203 4.88039063 -4.16796875 3.546875 C-3.90309523 0.22055634 -3.39198536 0.49466453 0 0 Z " fill="#C15D5D" transform="translate(589,320.5625)"/>
<path d="M0 0 C2 2 2 2 2.375 5.125 C1.57601568 13.38117129 -2.84348256 18.72498392 -9 24 C-13.19624409 27.22788007 -16.79488894 27.83209319 -22 28 C-24 27 -24 27 -25 25 C-25.85297269 19.56229911 -24.55658966 16.3554553 -21.5546875 11.98828125 C-15.74736069 4.56132309 -10.03434971 -0.96484132 0 0 Z " fill="#C15D5D" transform="translate(520,312)"/>
<path d="M0 0 C7.22296768 5.26467782 11.52955774 12.35205207 14.98828125 20.44921875 C15.57996094 21.74085938 15.57996094 21.74085938 16.18359375 23.05859375 C16.98828125 25.44921875 16.98828125 25.44921875 15.98828125 28.44921875 C15.48941406 27.89234375 14.99054687 27.33546875 14.4765625 26.76171875 C1.30425394 12.76170678 -16.05307615 5.33209764 -35.01171875 3.44921875 C-33.57237733 0.57053592 -31.88603198 0.40397151 -28.88671875 -0.67578125 C-19.72210992 -3.58136641 -8.76458901 -4.70415795 0 0 Z " fill="#663419" transform="translate(735.01171875,318.55078125)"/>
<path d="M0 0 C9.04259362 0.11859139 15.15514465 2.18365952 21.8125 8.375 C26.78629462 13.72867592 31.87116932 20.12775468 32.21484375 27.64453125 C32.16457031 28.52496094 32.11429688 29.40539062 32.0625 30.3125 C30.4125 30.3125 28.7625 30.3125 27.0625 30.3125 C26.56621094 29.37148438 26.06992187 28.43046875 25.55859375 27.4609375 C20.91194032 18.86088599 16.84691569 11.52697662 7.0625 8.3125 C3.68122813 7.95615039 0.32168657 7.8100849 -3.07421875 7.65625 C-5.9375 7.3125 -5.9375 7.3125 -7.9375 5.3125 C-7.1065726 -0.17162082 -5.24145835 0.11620503 0 0 Z " fill="#BA4C4B" transform="translate(701.9375,357.6875)"/>
<path d="M0 0 C0 7.25863526 -7.35557203 14.99249548 -12.1015625 20.2109375 C-17.72511961 25.51050367 -23.35203739 29.16425925 -31.1875 29.0625 C-32.08855469 29.05347656 -32.98960937 29.04445313 -33.91796875 29.03515625 C-34.60503906 29.02355469 -35.29210937 29.01195312 -36 29 C-39 23.375 -39 23.375 -39 20 C-38.31035156 19.97421875 -37.62070312 19.9484375 -36.91015625 19.921875 C-25.24962043 19.21808409 -14.12106919 14.17543037 -5.80078125 5.78125 C-4 4 -4 4 -2 4 C-1.34 2.68 -0.68 1.36 0 0 Z " fill="#F4C0C0" transform="translate(838,754)"/>
<path d="M0 0 C12.66331539 -1.07316232 24.50282957 5.40051311 35 12 C37.37109375 14.08984375 37.37109375 14.08984375 39 16 C39 16.66 39 17.32 39 18 C26.69995854 19.36667127 14.54877206 13.36924872 4.6640625 6.359375 C2.98061692 4.98416593 1.43370287 3.6360045 0 2 C0 1.34 0 0.68 0 0 Z " fill="#FEFBFB" transform="translate(599,300)"/>
<path d="M0 0 C-1.55194754 3.32759923 -3.30621949 5.48580485 -6 8 C-6.51304687 7.7834375 -7.02609375 7.566875 -7.5546875 7.34375 C-21.86999248 2.13818455 -36.78895718 4.96494743 -51 9 C-51.67369629 9.19110352 -52.34739258 9.38220703 -53.04150391 9.57910156 C-54.69526727 10.04947218 -56.34777284 10.52426144 -58 11 C-44.54892127 -4.30523746 -18.22812513 -4.40939528 0 0 Z " fill="#E74E4E" transform="translate(621,454)"/>
<path d="M0 0 C0.38218767 1.65614657 0.71395102 3.32457024 1 5 C-0.77062515 6.77062515 -3.46921295 6.50965387 -5.875 6.8125 C-15.51142516 8.24051031 -25.35369079 10.7905018 -32.0625 18.3125 C-32.701875 18.869375 -33.34125 19.42625 -34 20 C-36.75 19.75 -36.75 19.75 -39 19 C-38.38305929 13.36919189 -35.64113182 11.3688742 -31.46875 7.86328125 C-21.70484847 0.49400747 -11.92547439 -0.32722338 0 0 Z " fill="#BA4C4B" transform="translate(449,328)"/>
<path d="M0 0 C0.74886475 0.00523682 1.49772949 0.01047363 2.26928711 0.01586914 C3.07817383 0.0190918 3.88706055 0.02231445 4.72045898 0.02563477 C5.5705957 0.03401367 6.42073242 0.04239258 7.29663086 0.05102539 C8.15063477 0.05553711 9.00463867 0.06004883 9.88452148 0.06469727 C12.00108749 0.07652166 14.11761771 0.0944577 16.23413086 0.11352539 C13.89516414 2.46061352 11.55497879 4.80361546 9.17163086 7.10571289 C4.9806819 11.17836894 1.47631716 15.25024594 -1.76586914 20.11352539 C-3.22467023 19.97244792 -4.68290466 19.82550124 -6.14086914 19.67602539 C-7.3590332 19.55420898 -7.3590332 19.55420898 -8.60180664 19.42993164 C-10.76586914 19.11352539 -10.76586914 19.11352539 -12.76586914 18.11352539 C-11.28558559 13.92843055 -9.1916119 10.53040946 -6.70336914 6.86352539 C-5.99051758 5.80649414 -5.27766602 4.74946289 -4.54321289 3.66040039 C-2.08220865 0.13386244 -2.08220865 0.13386244 0 0 Z " fill="#F09B9C" transform="translate(849.765869140625,809.886474609375)"/>
<path d="M0 0 C3.65316671 1.24976756 4.78065836 1.67098753 7 5 C6.32453125 5.03738281 5.6490625 5.07476563 4.953125 5.11328125 C4.06109375 5.17902344 3.1690625 5.24476563 2.25 5.3125 C1.36828125 5.37050781 0.4865625 5.42851563 -0.421875 5.48828125 C-3.46251451 6.09180212 -4.8757507 6.73510405 -7 9 C-7.98385387 13.48484039 -8.31410137 18.75547649 -5.9296875 22.828125 C-2.21352687 26.19906853 2.23038928 27.09541866 7 28 C6.25 30.4375 6.25 30.4375 5 33 C1.00152975 34.62193912 -1.92339629 33.42037617 -5.8125 32.01953125 C-9.63889596 30.23615742 -11.8837643 27.54146835 -14.3125 24.1875 C-15.44826884 20.57369006 -16.05857557 17.64406619 -15 14 C-12.36519511 10.57075285 -9.27890738 7.80439884 -6 5 C-5.36191406 4.44570313 -4.72382812 3.89140625 -4.06640625 3.3203125 C-2.73235951 2.18781239 -1.36988192 1.0888805 0 0 Z " fill="#F4B5B4" transform="translate(829,717)"/>
<path d="M0 0 C5.61607143 2.97321429 5.61607143 2.97321429 8.1875 4.6875 C8.1875 5.0175 8.1875 5.3475 8.1875 5.6875 C7.1459375 5.70167969 6.104375 5.71585937 5.03125 5.73046875 C-8.33574244 6.10448053 -19.56163456 9.30215812 -31.8125 14.6875 C-28.6956621 7.80636511 -22.83745936 2.98892706 -16.20703125 -0.43359375 C-10.8053316 -2.41627307 -5.309679 -2.15381773 0 0 Z " fill="#69351A" transform="translate(441.8125,288.3125)"/>
<path d="M0 0 C-1.70007693 5.51123839 -4.48326166 6.92587377 -9.33203125 9.640625 C-14.39114669 12.2183295 -19.17228129 14.54634863 -25 14 C-24.67275624 11.06968088 -24.45300439 9.4477369 -22.3203125 7.33984375 C-6.94988687 -2.47863098 -6.94988687 -2.47863098 0 0 Z " fill="#F19897" transform="translate(591,467)"/>
<path d="M0 0 C-3.63 3.3 -7.26 6.6 -11 10 C-12.7325 8.7934375 -12.7325 8.7934375 -14.5 7.5625 C-18.74461964 4.87929401 -22.02440883 4.26654953 -27 4 C-20.2639222 -2.12370709 -8.05614036 -5.37076024 0 0 Z " fill="#E74F4E" transform="translate(561,458)"/>
<path d="M0 0 C0.66 0.33 1.32 0.66 2 1 C-3.95076571 8.94872811 -10.27324276 16.75774759 -20 20 C-21.72795352 20.06802967 -23.45835365 20.08495645 -25.1875 20.0625 C-26.08855469 20.05347656 -26.98960937 20.04445313 -27.91796875 20.03515625 C-28.60503906 20.02355469 -29.29210937 20.01195312 -30 20 C-30.33 19.01 -30.66 18.02 -31 17 C-30.04480469 16.72027344 -29.08960938 16.44054687 -28.10546875 16.15234375 C-17.3528877 12.87047629 -7.58922783 8.63601788 0 0 Z " fill="#F3B4B3" transform="translate(832,763)"/>
<path d="M0 0 C3.23624108 -0.24451599 5.93582442 -0.12103985 9 1 C11.84875832 4.2746333 15 8.51468033 15 13 C10.79004402 13.96478158 10.79004402 13.96478158 8 13 C0 4.52695652 0 4.52695652 0 0 Z " fill="#EE9999" transform="translate(261,824)"/>
<path d="M0 0 C0.66 0 1.32 0 2 0 C1.89558594 0.85271484 1.89558594 0.85271484 1.7890625 1.72265625 C1.47617812 6.18498343 1.60410902 9.221977 4.4375 12.8125 C8.00200869 16.48813246 12.23796664 18.29625029 17 20 C17 20.66 17 21.32 17 22 C4.90200839 20.38975944 4.90200839 20.38975944 1 16 C-2.17378446 11.18460288 -2.46636118 7.59633422 -2 2 C-1.34 1.34 -0.68 0.68 0 0 Z " fill="#F5C1C2" transform="translate(816,729)"/>
<path d="M0 0 C1.93719378 -0.05406122 3.87481921 -0.09282025 5.8125 -0.125 C6.89144531 -0.14820313 7.97039063 -0.17140625 9.08203125 -0.1953125 C12 0 12 0 15 2 C14.67 2.99 14.34 3.98 14 5 C12.41753293 5.08153933 10.83383727 5.13943557 9.25 5.1875 C7.92742188 5.23970703 7.92742188 5.23970703 6.578125 5.29296875 C3.52389051 4.94589665 2.19435701 4.11745198 0 2 C0 1.34 0 0.68 0 0 Z " fill="#FEFAF9" transform="translate(578,292)"/>
<path d="M0 0 C5 2 5 2 7 5 C6.32453125 5.03738281 5.6490625 5.07476563 4.953125 5.11328125 C4.06109375 5.17902344 3.1690625 5.24476563 2.25 5.3125 C0.92742188 5.39951172 0.92742188 5.39951172 -0.421875 5.48828125 C-3.42491745 6.08433968 -4.85706046 6.81809793 -7 9 C-7.6921369 11.26300895 -7.6921369 11.26300895 -7.75 13.6875 C-7.80671875 14.49574219 -7.8634375 15.30398438 -7.921875 16.13671875 C-7.94765625 16.75160156 -7.9734375 17.36648438 -8 18 C-8.33 18 -8.66 18 -9 18 C-9.12375 17.030625 -9.2475 16.06125 -9.375 15.0625 C-9.58125 14.051875 -9.7875 13.04125 -10 12 C-10.66 11.67 -11.32 11.34 -12 11 C-8.04 7.37 -4.08 3.74 0 0 Z " fill="#E69C99" transform="translate(829,717)"/>
<path d="M0 0 C1.65 0.33 3.3 0.66 5 1 C5.33 2.65 5.66 4.3 6 6 C3.625 6.625 3.625 6.625 1 7 C0.34 6.34 -0.32 5.68 -1 5 C-0.625 2.375 -0.625 2.375 0 0 Z " fill="#C4651B" transform="translate(844,277)"/>
<path d="M0 0 C-2.22825644 2.22825644 -3.65761628 2.69239369 -6.625 3.625 C-7.44226563 3.88539063 -8.25953125 4.14578125 -9.1015625 4.4140625 C-9.72804688 4.60742188 -10.35453125 4.80078125 -11 5 C-11.33 3.68 -11.66 2.36 -12 1 C-7.93631321 0.22596442 -4.13574827 -0.0984702 0 0 Z " fill="#894F4E" transform="translate(128,548)"/>
<path d="M0 0 C2.0625 0.4375 2.0625 0.4375 4 1 C3.67 2.65 3.34 4.3 3 6 C1.35 5.67 -0.3 5.34 -2 5 C-1.125 1.125 -1.125 1.125 0 0 Z " fill="#C3641A" transform="translate(302,290)"/>
<path d="M0 0 C3.3 0.33 6.6 0.66 10 1 C9.67 1.99 9.34 2.98 9 4 C5.65626525 3.44271087 2.96687001 2.64826111 0 1 C0 0.67 0 0.34 0 0 Z " fill="#894F4E" transform="translate(1027,584)"/>
<path d="M0 0 C1.7074998 1.28062485 3.37373596 2.61767557 5 4 C5 4.66 5 5.32 5 6 C3.02 6 1.04 6 -1 6 C-0.67 4.02 -0.34 2.04 0 0 Z " fill="#E98786" transform="translate(1028,572)"/>
<path d="M0 0 C1.65 1.65 3.3 3.3 5 5 C2.36 5 -0.28 5 -3 5 C-1.125 1.125 -1.125 1.125 0 0 Z " fill="#E98886" transform="translate(123,537)"/>
</svg>
